<mxfile host="Electron" modified="2024-01-10T10:21:58.604Z" agent="Mozilla/5.0 (Macintosh; Intel Mac OS X 10_15_7) AppleWebKit/537.36 (KHTML, like Gecko) draw.io/22.1.16 Chrome/120.0.6099.109 Electron/28.1.0 Safari/537.36" etag="WsZgHPe0ViclqIDJC-sg" version="22.1.16" type="device">
  <diagram name="Page-1" id="ldnnpICYQZ-5Dsem4W07">
    <mxGraphModel dx="3111" dy="1427" grid="0" gridSize="10" guides="1" tooltips="1" connect="1" arrows="1" fold="1" page="1" pageScale="1" pageWidth="850" pageHeight="1100" background="#ffffff" math="0" shadow="0">
      <root>
        <mxCell id="0" />
        <mxCell id="1" parent="0" />
        <mxCell id="Qg6AfpxPYXCViFBLp9j0-5" value="" style="shape=image;verticalLabelPosition=bottom;labelBackgroundColor=default;verticalAlign=top;aspect=fixed;imageAspect=0;image=data:image/png,iVBORw0KGgoAAAANSUhEUgAAAWkAAACMCAYAAAC+hVjLAAAAAXNSR0IArs4c6QAAIABJREFUeF7sfQd4FOX2/pmyNbuphCZIEQEFC3oRu9euIB0VaTYQFbDRERHbVbFXEEUFEfVaAPu1wE+8ooJXLKAiSockJKRtNtum/P/v+WY2mxggBcWEnefJkzY75ZuZd873nve8R6JaLqb5jpeCX59Mu7ecTaVbTyRt96FklLehWEwxDYMkSSLCFxbTrOXWk6s3qBEwJSLTbR2yQUQakRQT37FIMpHsIpN8RI6MIsnd/HfyHfoBpbV6V0q7ZVWDOtfkwSZH4ACNgIWm+967WfzB2YG8b8eU5n/b3whvpTSHRqleIjICRGaEAND8XNogbZpkmqb4Pbk0zhEASJNKZMq4EYgkgLMufubfZdJNhSTFS6bso6jmprDmJYN8pDozwrKr+SL/oac+ImVetLZxDlDyrJIjUP8R2CeCmoWvdtWKvrirIP9//bRYHvmcCqU4VZIjGkVD5eR2Epn8UAqAToJ0/S9KQ9qCQeIWksmaNfE3ALS4J/CiNhisZdIllTRSyTSdZMhOMshLMTOF0rOPftbV/OwZkq9XbkM69+SxJkfgrxiBPYK0aZoSbX7u9oItb9/udm4mxZlHqhLh6a2sy6ToMpEBaqPKYSZQHclI+q+4hAdyHwYZFhjLDM6yFVXbx2QQKUBqjXTMrBQiRVHJlCXSDSLNkCkalSlmZJKmdqTMVmcOc7W+7uUDeUbJfSdH4O82AtWCNAA68tuk18O7Vg5MM4NERimRVEIGHjjZRTKmt0aMyNCIVLfgHm3+GSCd5KL/btf5Tzoegww5RqZkkCRuDpINhwXWYpeGESVZlS2wjpGuRckwNSJZJkVxkaymUTSkUUDXyfS0p9SmF9zlajt1xp90wMnNJkegwY3AH0AaAB34+V8rwvlLTk2nbeRQwWcYHCSJ6avK01lJBkBLRDGTQRpRs73EeegkYDe4G6J2ByxAmukNhMmkkmyBtYiqcetoJCHMRsSNL/te4hmXShSRBZBnIbr2Ul5RC0prfuE8X+fpI2t3LMm1kyPQOEfgDyCt/T5jTmnOstEp0VxyenQiLQRoJhNZesVJJKkkQcWhlRHpESKHm5A/qjZBmATpxnnXxM9KJAgF5WEnEHFLCdqD3+uqSqTHyIhpJEkKSTIibYlIN8mM6SS5vWREikl2lREpMpWFvGS6jyB/mz43Si1veLyRD2Dy9JIjsM8RqATS5pZXRpVte3au29hAqsNDFAkSOWJEikS65CINBKOhIPVDCmRWiJBALmIriSqOJN2xz4FvdCuYEqco4lMuQXbwDEvBDSJbIM65DMC3wveMpoVJ9TmIooVEZpTI46NgqYPCjiMo64iLL5Syrvyw0Y1V8oSSI1CLEYiDtBl4q2v+/xb+mO38jSiaR+RIIdIiZLh00hSDNIvuUHWVFOSD8LBhYYCuxR6TqzaeEWCdNO4D+15AVG2Bs6RbCg+DJDupyJy1QgTKDF8S6JIoz9RkHdtiQo1IViikpBhl5hG7s0+c2EGSTixtPIOWPJPkCNRuBOLwamya8Gbp9g8HpCkBIq2cSHJzsBNVYwzSjMcmkcOQSQVA44HCA5oE6dqNeGNaGyBtIEeB+8DWRkP0o3MykXXTjND4H+4ZiSTcM6ZKshV5mwBzxNW6wwJpgDuRrhAFqS2lNhs6U2p33R2NadiS55IcgdqMAIO0WfJB9/xf71vljP1IabKbKQwDyleHQhGW3QGYHaQYiKLxkOEBjFnJICuKqs1ek+s2nhHgRGHCAtyWDDIBzlzcgnvFtFXUJHEBDBbBWzNocwQg1mXlEMlkkEIxswmFzI6h9GNGtE9qqBvPLZM8k9qNAD8xoU33P797+7wrM5y55EWZr+miqKETOVXSpCg/SE5dIUV3ihAHD6AStqKk2u0wuXYjG4G4qCcBfAG3Fu1BdlSNYKAKLSYZMikAeckkTdEY3FkIYkKH7yDD9FBJxE0ZnQZPlg6ZNquRjVzydJIjUKMR4Mcm76vLDYf5PynFUURKVCKFHBQjhR8aSY6RTDqpmJWyPhoPFTwZRMQkc1Sd9Oio0Wg3upUsSoOpL4v2YCmexVNbhS52wQtTIIlBN+hn3FcSkaYQxRSTZClCimmQGhN66yioas8pX7iPff3URjd8yRNKjkANRkAyy//VY8fKj77KTg+QahSSpEU55DElDxnw3pAB1zGuGmOQNl1iOqpgSoukkGmnjWqwu+QqjWsEbL8OCKKthCAQlwE7cbEUQPEIW/yPqxR1cNASaapKMRl6/Ag5DZ2UGMDeIHIZlF/WnrKPf7aZ5D9mV+Mav+TZJEdg3yMgmduG31H067oZ6SmoGisiklFhqBEZfqF9Ze7ZcjVjLayLp7KGGhQcooEkUJKX3vdQN8Y1oOYQ94bNJQu1h63UwH+sQpb46VvJZuY+IOFEclEmXXGQJsuch1YNjWRNGDWZTpNyw62pxZFThkjZg15pjKOYPKfkCOxtBCTzp9M+jhbuPkc2NZLNcpLdYaIYkoV+LlwR9pN2JKSSYbo4gjaVIElkkmQ4GgdIW6BhIJpjbLGKMezRsxkdfMdLitcTHCpeZjwu5ICYzOJjMd/A2EVIIp0TZmJda0ONQraY6N1hl6Ta362Bs1UfleZbNlALXw8shoyXv0gkKvgbImwyKCbrFFTbkaPl0Mm+1uOSvHQSzw66EZDMNV23kKYdakbDZJoxkoEk+MKUFfajXKRig7SQUXFSiKVTFdn4hjpygleXrYSoQbpqe1GoDBiSbpKEqrkYincUVr6YWpikNCdpRoRUUyYz6qRwNJOilEox2UEaSaTIBjnUCHncpURagKSoSU6nm4yyAMleN4+tjqKgBg/WNs9cZTZVKU1hSfBwk1Q9X+Q0eLG5bPslKSLwmKlTRD2UjJTznk7res+YhnqfJY87OQJ1HQHJXN3eRNRicuSS4AdtVYvt2Q96Dw9nXY/kAHyukoOb5mBQ0B0x0mWDFB0grVi8qZULQ8I0HCXyekhTTApETNIjHvKmHErezC6PUnrbtyg74zciI0qFkU4U2N6tIP/7SxSt4HSXESZFC5ArVSG9qIAUn4+0WJRUbPMgTrzaig7h/WHNNCwmhBOKpkYxuRXp3jOX+Y9+4OwDcJskd5kcgQM6ApK5srWYhFc16Ie2da+m/Y0MpCEtRB5L1Qm1OtCDKzxlcAiOXrGKMmKQJmbQ7nKVKKUjpR5yxsMOT4c7pKyee6yKM4tfPS60adlz0cC6bm45h1zOGOkRnRTFAqYkSFsGTX8EaYB42GxBmveMrWnHPNzmgD4tyZ0nR+AAjIBkfNGKQToxYmZHO2lfXVUaAUjziVu8MvtJCFsJfMkGOGSZTIgPnKB+QAdpJKkeKg+nUJnRjpp27jtEaj6qRsksuAvGfrpxYSjw3yFOM48oqpHb42XzoYN52VckbcomlevNKOY+Y2vGcY8kQfpgvlkO0nMXkXQVo37GLk7S780bupGAtFXfxvw7kn6yTCY6zDA1D5CWSVJMMqUgGTI6z/gpqLUif+u+I6XWt8yrzX0DoC7+sf8ap/HrMXppIfm9TqJYZe1wbbbXGNbdF0iDqi6LZQOkt2Ue/+ihjeGck+eQHIHajIBkfnloRYrH6kt4sIA0R84kidZPlsoAihb+m20KBNVBtJxMZ5gMxUGlQS+lNz/zNbXzc4NrM9D2umbo2XZb/zdvY0tfCWllueRUPY1DHVOXwWDdtDWT2QMnjUg6qDVNgnQdxzf5sYY/AhUgXdVedJ88acOPpIVSRRZVkyjYYRWLXTln+SLz7zGKIZJWU6kwkEUtjr6iq5Q1dl1dL//utTe9IJW+f4VfzSXZ8JL8h+KPum654X2upiCtef65PeO4R1o3vDNMHnFyBOo3An9MHMZ9oYUXcGNWdzBIo5sIu7RFKksNuXBHIi2qk5rqoUi4kCR3Cyo3j/kp4/hXutRn2M3ixeflfz/9P018O0mKooKzaoVefbbesD6bBOmGdb2SR/vXj8BBH0mTiW4zFkhz9ZzN/li9+kCGmJDlaVQczqAmbYc/IbW97Yb6XCrTXOkJfHlreQr9SLLkrGKUX58tN7zP7gukbXVH2HHq9qx/PJaMpBveJU4ecT1HIAnSAGksMiJpGNALvThL7+IRrsEgXRJqQZntrpkstRlTr8o309zkDn05JsdjrknnApmDeEmC9EF88ZOnXqMRSIK0DdJSVPiUMDcNZYsiqBA7sFaIikOtKb3tuBukNsOeqNHo7mElgHT4qzG/us0fWwtvi/psrWF/NgnSDfv6JY/+zx+BJEhbSTtD1khmgBbl7oakkGl5STBQy0Sl4TaU2n7cDVLrIfUG6dCqMb95jLWHiAYKf/6F/rvuIQnSf9crkzyuv8sIJEGaQRq99kRPPpn10vgdeUOZJLj8cWRtUkmkFaW1vf4Gqc3l9QTplZ7g6hm/pRg/thTl0Aevi2ASpP8uUJA8jr/rCCRBmvs0gnMWZd/cHgzxtCLc2YTLH/+FSiLNKa3d6HFS29FP1ueCcuJw9R2/+Y2fWtJB3lk9CdL1uZOSnz0YRuAgB2mrp5NksqkSIlpuiEpww4twuydZd5H4V5QC4Wzyd7hqnNT6pnqDdOnXD/+Wqq1tyQlL5sIPziUJ0gfndU+edc1H4OAGaYyTlRhkf2h4SJsAaSJdFiAt6SopnNyLUlm0GfkOH3mN1PKGZ2s+xH9cE5F06deP/uY31rWUCJ3ZkyAdd8Gzi6hs327LYCminrw9s/sTSQlefW685Gcb5AhI5lfCBe9gnXbHnY4TGqrC/I67XQsqmmRTdEYPxFqTv8O4a6SWV9YbpAOr7/3Nr69rSbztg7lHpO0fXeEImOA+zWXjcMFLgnSDxJfkQe+HETioQTrR2shuyMINdpkFEabGaIoqgBQg3Yb8HW65Rmo5bD+A9F2/+Y21Bz0nLUYbDBMaHIu3YlWQjpgtKJyMpPfD457cREMcgSRIW1ftLwfpVXdt8JuQ4B3MUTSjcxKkGyJyJI/5LxuBJEgfOJDe5TfX+pIgnQTpv+xpT+6oQY5AEqQPCEhvcpd+fd2uVHMtWrIf5EsSpA/yGyB5+vsYgSRIJ0H6AD8kSZA+wBcguft9jEBubm7TjTu3HrV1246OObk72+7cvqNzwe6C7LJg0FVeHspUVIWcTme5z+fLbdoku6Bly1Y7Wx3a6rvszIxtnY48bG1zf/Nd9RnkJEjXGqRvHia1HP5yfQYd3h3JSNoewYYH0jk5OdmzHn1kjsPt1EhWTcmURSMjlg1yY0xe0NRHhhGuaUimoXPywYjFHH0u6vPi6SefvKQ+95D92RUrV579n48+GVdeHor5/H6KRmESRtyg1Ol0kmkYLCC1FI3IzXLVlo7vWtQsDwZdgy8bPP+kE054p+rxrP/99+7Pzps31eF0xiQFXjY4D2xNlpDmNUwDMtVKpgZojVqT8zKlyuspBo8X2d/jYxjTSJYlUggdkhQyNA37cx53/PEfXNK37+ya7Ku26+QEAtlrvvrqws9WfnHqimXLBwXDoYxYLEaqw0Eul4t7k8LCWVJkHm9ZlvkL1s6mbpCu62Rg3E2TgsEgtW/XrrjHCT3eOOmUE9/u1unIr1q0aJFfm2NKgnStQfqWoVLLYYtqM8hV102CdOKINDyQ3pST0/bCnudv8qX6ybScEoGCFkjHT85GKzzQeGjxIJcUF9KdM2deP7j/oHoDTG5ucbv+l/RfG4pGvD6fjwFDM3QGkkgkwmDCwGH5wjOwSBIDiaZpZOoxOu/Ms9+adf+9A6u7nz9etqzvTePHL3F6PaQ6HaQDV3Uj7jGP7cokiXoCNDeq5Xd7nzbK2y+SRJTH8SqyzOOHn6OhMJ/XgAEDnpg2YUK9LIOrnvN369adsPDll6d8vOzT/hjLjIwM3qeB8wQQq2I8eezwN4ca/7+dW8L6qFDmPrF4G8JmwhCfiYTD5PP5zNNOO/W1Qf0GPHxCt26ra4IjSZCuCUiTxu21SqKHUlqXaUOl7Ev2C0j7jR/9e26qUJPL1xjWaXggvTk3t12viy7cmJ6ZEQdpXInKcneOMnmJgzRJFCwroymTp4wZ3K/f0/W5evn5+f7rb7rpi+25eUeRLHbE+6myURukXQ4Hg7iqoqmySeXl5dSxfbs1ry5YcIYkSYHqjuWTFSv63TJxwmJE6KaKGYFJEvp+WqAFAFIgmURlrolWaLX7XnXMEkHePh7sS5EESAMoAYaIai8ZMPDJ8TfcMK4+Y2h/dsW3q85+4bkXZn711VenpqamksfrpXA4DAqDo2L7OvJLylr4ZWeNOf4uYYZh/S5bjVNw7Dhul+pgkMZ5YCkuLqaUlBQ6qsuRn4y97sZbj+3SadXeziMJ0kmQ3h/3eT220XBBOi0zg+1ssdgWWXZEKZwUK0DajkCDgTKauh9A+qaJEz9auerrc2WH09L04yDEDm2wxM8ACo/HQyVFxfxd9JeWqLBgd2DZ8mUdmvv9e+RLbZBOSfUTKQKkcaaJwCnFvXzrdgvs6+P2CwHRfyJIXzxw0BMTxo2rdyQ94bbpLy9bvnyIrmnU8pBDqKSkhGchmJmEImHxUrPGNPHFYcN1Bbkl/qtY7I89OwBIOxwO0iLR+LXQYxrvAzOe3Xm7aNy4cQ9fP3Lk+D2NYBKkkyBdt6drv32qYYJ0z94XbkzPECBtR4CJYM0PNodWsKKVmBvGAwyQvnXS5Osv6d+/znTHU8/Oe/DpOXPG+9NSyVTQ3V5cDNMCaZs2sCM7UAQ+bwpHc2RotGvXrtgHS985ulO7dr/s7TIu++KLvjfecvMS0Doko0GzXZxcEd3WdyaY6P9YdRZgv2QYnDlqx3cRSV88YOATE24cW2eQDgQCTQcMvfR/BbuLWzlcbt4uxtHtdvOQIIIGB44xs8+Rv1tjbI9bYnQtLregl+KLYXJEju3guPGzU1UFNRWNMYAHSkqpQ7v2a996bdHJ1c1qkiB94EA6z2/8mFrfm3y/YeUB21DDBenUBLrDpjoAOjbYCPAUXOr+AunF734w7OYJ419q3+EwKg+HOIrGfhIB2r6U2D0iOaeiUjQcIZ/XS/n5eXTX7XcMHdir1z4pOxukvWl+kqU/F6T/QNPEQ1HBBwOk8V3S6w/SG7ZsOfLqa67+rLi0pInHm0ppaWlMb4ACAkgDZEORCANq1YVfyPE+sESaKa5vHMirgDQ4e/tlaYM/vgOowa3bnHW4PESZqembF7675OjsKvRTEqSTIH3A4FnsuGGC9IW9L9wIuiMxcVjdA20/oKah1TuSXrVmbffhV434uknTbAkgAvoipgtLXRukqx6DQxYvCER45WVBGj582D3jrxszvSYXXYD0+CXeVD8DpIikpcp0Rz0bVtiRdOUXW8XR2dTK/gLpTTmb2l416rovy8rKmvtTUykUijEgI6IF/WAnBe08AugOm9e3v/PR2dSSldCMgzQSyBaIcxJRlpnawHeb40aUztfM4qzxP7fTyS/Stoe0/vnVl148WpK44aoA+IPZYKnG3h2JicMjpg6Sml36Zk1u8j2tY6k7kpF0gwfpLIK+QTxIla+2TUGAs+RIS68fSG/My2t2+dDh62JkZGEaHqc4EqbWVflR5ntNnRyyQqXFJXTqKSe/8fRDj1xc03vXBmlBdxw4kBYR9P6JpEfeNPazNWvWnA5ADkVj5HZ5mXdGRAs6gtUklsQuMfKNA6atkEmIqBNB3I6cEykPW11jAzPPDNCoD/SH2yWSoiSRHotRcUEhXTF82PNTJ4y/OgnSCdNSfjHaiF2dwdKfA9L5fuNHX5LuaMiRtA3SEklVPFj2J0ibpqkOGjZizbYd27s6PG6KxKIkSVYCT5HjLwh7n+LhNsREWzdIlRVqkpm+4dknnj4+Ozu7WiVHdcC9bMWKvjdNmLQkJW1vIF2/UNpOHNovmPi4xaNIQXdImgXScU56QK056SUfvz/i1lunz0cuATSFw+kmXYeWuZyjaMxMQqEQR9N2BG0rMhIpjcSIGoBu66IZRxI105b80U4+ApTxWUTttjxSN8XLQUVBjOogIxqjgl359PbiN3t0at+eVR8HdSQtbmUrM48f2IXNnoALFzzED2SBdHG0LaUfNXmQlFX/SLrs69G7fPqP/oO9W3jDpjuy2IM8MXFog93+BOlJ06e/smzF54NRPOF0uymqIeEk5GG4R6t1ukUrOMjiNJ3CoVDZf5Ys7dCsWbO8mkbRWI9BeuKEJZDgSYpKuvUiSpTg4WXxx6VC8SybEkpgyP4uHrKK1GZNQRrqDhUUg0GkRaNIHD414caxY2t6PqZpKl17HF+ampbmJUXwwWHWkjt4LAGUAGeANRYGakufHadkDFGoYq+LsQXg2oUr0FHj8/iblNASD8lFW+dtR+2cxGVUF5QICnZikShBKomEYpfOnVY+P3v2KUmQjj9R9mvbtilF5ZN1M5m6EH+STsWxQym9y9RBUtagetMdgS+vgsGSnyQHKrhqeq81wvUaZiTd86JeG1OzMhik+VmzrkxVbrUq3VEeKKNptVB3zFu0aOKsB2bNys5uxvwzqA481AzQssQAg6QXHnJIu5D4ikHehUILIgoUl2gLnpt/0lFHdf6mtjfPJ8uX95swccJil8dNqksk1HSLg+UgHTa+spCo2YsYBzv0McC2kKwCgDTypLgpGgU4GaQ63QyEDllwvgByLJwE5d8FTWRqonoP6pRouJz1haoiUZ+efZ6adPMNNQbpBW+8du0DDz08253iJY87hXliBkCoY6yIV1xHq+AHLyTrRYdDQyEKjveUk3os73Zst487dOzwTXZm01KXLAeDkUhKIBBI3Z6be/iqL78898vVq/qUB8OyJ8XLgI2XajxJKItqRZsOARWF7eKaxgydHJA6GgargF589oXuxx3V+ZuDPpKuVJwqEenW7K0CpHElNbRo2Y8gvdJTtnJKnk/6yU/kTII0P9cNx08axSw9L+rNxSxoSsAPtwXW+xOk//P58otuvPGWd7Kym5DL5eEiCLfXK8CSJWIyhcMRSs/MpEBJMXndHjLxd0TQeoyCpQG6dcq00ZcM7D+3tgCN9X/44Ydzps+8fY7D6dRVpyoZhiEbKNrgag0TuUhJzAQrdGkSVhCCE8ZcTvypqqkoillUXER+nx8JSElR1eDmrVuOdsgORmYbpBO13tgACkEAWuXBAKW4PaRHYwywlw8f8dSN115bY5Aedu01P/20/pcjVMUp1CJ2NTvXx1TI5mxOOQ7QOFrTpFbNWnw3c+adw4/s0GHtvsbyt9zcpu8vXjxp9rNzx6f4UikzM5N2FxWy9lozzPgLgsv2NZFE5HvIoZKua3y+mC0MHTzk0fHXX3tzEqQr1aDWAKS73tpbyhzw7r4u1N7+j/ZZZSun5Pikn9KSIN1QI+k/F6QhExsyfNi3mq67MptkUVFRCQM0T9PDYZHgcogoNKLFyOfxcvTlcbk4Giwu2k3Dhw1/aNINN0yo373K7eyrW/ZFRlfr4SFJkg6O/ZYZ05d+/vnnPZ1OS5dsla4DpO1I034ZcUGIKrOUEEUhmI1cf+31U0dffeV9NTk3vFQvuKjnRn96GgGkufpPESXd6MBkgzTzztZRc5rUqnb0+/2/vv/Gm10SFRc12e+SDz8cMWXarfNRXo6yerwcAsFy5rsdLifTG5ik45pCN40oPxIJ834h0fO5vdv+s3TxoUmQPkAgHfhicrlf/hmKyWQknYykKz3zKPkeNmrkL7l5eS3TMtI58jIlRVQOlpRwSTEWTjg5HUIloDooGg6T2+miSChM3Y49+qNnHn/8/JqAyV+5DlQqEyeM/2zbtm2dQKMgcReffSCiraKaAKAheadFw0znlBWX0ORJk669fMiQZ2p63O8t/+iKSVNufQEgCDUHl3pjQsCKlcoK7aogXViwm/792ssnHtOxy9c13V/ies8tWDjp0SefuD/F7xMRvKwwTYQoGtfNjtxxjXF9o1qUC2tSPB7asW07LVvxWVYSpA8ISC93B76YEUqCNKOzuKcbCd1hn1F9EofX3nTDR2u++/5cp8tF4WiES7JdTo+oUtM0njYjmk5MQuGhdygKBQOl1Kxp0w3vvv7GkbWN/OoCQrX5zHfr159wyy23fFoaKPXJssozATHPlzmqhTmULVezVRWaHmUJITTEiiyHHn34kT4nHXfcJ7XZ7z2PPPjoO++9fyMSeE4HXgwCpO1IGtuqmnyVTHEsHpe7ePl772fUZn+J6+4yTd+IQQO2FhWXZgCkHdY1tTlqKG9wPPiyZ0ZIkrocCu3KzaNXXnm1exKkaw3S0y6SMge+V9eLhs+Z5nJ36X9vC6UqqMpNRtKNEaT5OkOMYEeGukZI5e2rLPy+Rx564JXXX5vg96UxaCH6AzhHwpBpqRyBAaCxQEkAIAF/iQXAVlpSFHrno3eObJfRYnN97tH9/dnF77477I577n4J5wDLz5QUP1dMQjECwALNEVdJQO2ABB5z7zEG6FaHHLJ57jNzz2qenr6ptsc2evyNy1av/t+ZGEvTkDiCRcKVq/2sjO+eQLpzp06rXnxqdo/a7jNx/XsefvjRd95970bJeinxy8ii8VXLPCpR4ofjQk4hVh6mJ556/JwkSNcEpGWQ+5qVOJx+vpTV/6P6XLQkSCeOXuOMpKsDaeTbQqV79u544513Rt1x151zvSkpTGNAyxsORXkajCQhwAxUBh5ogDXbkUqYGnsZeHJzcuilBS+d3eOYY5bV5/7c3599eu7cf81+5pmpGU2ySNdAb5jk9XqptCxAsqryubExVYKlKmxUbX+LE07ovuxf02f0q43GO/Echo0euWbdTz8f6/GlsJE2olZVdVgKi8rUuc2H4wUBsOzc6fBv5j89p3t9xuTjL77oO3bsmCXp2VnkUF2s9kAeAbRVLCyqEXm//KLSCMAdi0YZpB96aFb/JEjXAqRLtDaUduSt+wWkSz6fHkpT1ycj6UZIdyRSHomRtAVni216AAAgAElEQVTS5tRJk8cMrmKw9PWPP/7jiisu/zozM1PGQwxAAUjhoQao4G/MDJDEoA0zeZQSm1AD6Drt3r2b7rrzrmsu7du3Xp3s6wNGVT+LBOENt4z/8P9WfHa21+8jt8fDHDRmGIJPdzI/ywVdlucFAEuRJAqHyykULKcRw4c9OvmGm26uz3ENvebqNVu2bjsWwIjEIV8fQxTJmJARJixxeZxl2u9P8QY+efud1Prsf9369SeMGHn113jxorbQ7fXEFR62Sx5LKhWZ9KjgplHUgirRxx56eEASpGsK0maMirU2lH70zPOl9N71jqSLV0wNpTt/JzKTOumGTndwaUY1emkGI0PnCBgeGtDaSrppTBg/YdzgPn3iftIbd+5s07tP7599aakeRMhR+HGYotsHa5GthaPnkPA5BuWBwgdVIpbaXTZ06EMTxo6tl5KjPkBU9bNQVIy5bvTHBUXFhymqyob5XNShV3hb2K56fJ4xjc8LEbRt5Xnr9GmXX9yz94L6HteQUVeu2bhpy7EcqerE2uVYDAoPCFeqbyRj696j5WFauHBB+85t29aaZrGPe92GDV0uv+rKtcgxkEMhWVG4shHUj8bUi1B+aLrO6kZWe4TCTI3NnT3nvCRI1xqkZ5wnpff9uD43DugOAdIbiExXUt3BoU3D00nDBQ962j2BtIioRQcPREh+n4+2b9mqz5wxY9SQfgNeYErENJVLr75yzebNm4/iaa8qnNHAneJhBbjZFW620gG/p6enU7i8nMpKiun4Y7t9Pm/27NPrc0/uz89+9vUXZ42/efw7Hl+KN4ZyblURftTgWtFvy/a/sJoHQIoG+iMSCvHMwOV0ljzxxJPnHdtp72b4NT3mkTeOWf7tmu//iWg+FtUtfw5okkXFZnWLDdKwER3Yr//rM6dOvqSm+6u6XlFRUZue/fptVqDEMXT+QrSMhR0Ko1F+6dpRNf6OKLpw9276fu26pkmQri1IHzXjDCmj74q6XjDxYCZBumL8Gi4nXROQtiVykUgI4MMa36eefrLf6d26L8UYPDx79sNPzp59c8uWLSlm9cbjhKBEPCXGg8sPtNWCCeABMMeDjYRay6bZue8vWdJxT91V6nOf1uWzr7+3ZPS0aTPmoIADXDNTCkiSmRWzApa+WV1c8BpD9IjKGMjdunbpuv7BBx7o2aZZs4112X91n5k087bXlv3fZ5c43C7mxPGSQOKQO9VU8YdOsPDhTTkUlQKBAE0aP+H6wf3r1lPxx19/PGJQ/0t/ggxPdTkpECyLJ0k9LjfadIWat2i+IatJk+KMjIxNGRmZ+VlZGYWpntSdAy66aH4SpJMgvb+ehTpup3GDNMyQMI13u51UWloKHw16+omnzz2ze/dP/m/1V+eOvnbMRwDocqtAxeZEAe6IrhDtIcEELhqfh36WQQ5VeGUBbeGL84/tcvjh6+o4+Pv1Y3c+9MAjb7351k1oRmBzrHb5MyJoe7FNxbhYRYtyVWHR7kLqdWHPt2fdeefA/S0dfPqlFya/+ML8+/jFIKmCZtCExA5l2IlLVZCGRK6srIxXGTp02Kxbrr3m1toe3+bNm49YvHTp6PSsjNzMrMwcf0ZGsd+fknNomw5b5JSU8ibiAEJ72m4SpJMgvV8f1NpvrOGBNBrR9urdZ1NNImlM9YUNpvCKKC0poddf+XfXYzp0WH9Gz/OKSkrLff60NI7qAF6IogEKoDoA7qzoiEQoFAxSVlYWGyYBAHNycmjes3PP+ueJJy6v/Zjv30/km6b/5pGj3//5119OBW0BjxH2UbY6kYDysZUb3Lg2oQzb6VJp66bNNGn8xFljrrpq8v49MrG1ld9/e/bVI0d9gopDG6RRTs9GSFUSh1WbD9juhrgOaEHWvHnzXbdPv3XYqd2714vyrM15JkH6QIM0OYisPnm1uXCNZ93GDdLQxDIYwAlOllkmt+GbNeqDs5+8b+7cZya0aduBikpKeB17sekMTiJGhQTPsEx4QHHAw+O++2aN7n/+OXXy5Nif987Pmza1HTPuhlWlpaXZUC3YhvYAaBTdYCaRKK2zpXai5FqisrLSsqdmPzXktGOOf2d/HlfitnaZu3znndav2J3iVWxDLF0XvQc5k5iwVAVpJGcxo4FxFQqJ8JIsLCxETqBs1Mir7+7Vp8/zLfz+/D/r2LHdJEgfMJCeEkp3/gbWKwnSuBMbUOKwtpE0u9Q5ZDbTkSWpfPbjT5024vKhq7Ozs+VQWOMqNC5KsewrAco2Hx33Ira6ewDkzjnn3Hl3T5sy8s8Ehpps++v/fX/W9TeMfUdxOLwuWKjaswGvJ54Is32TobIT3hgVUbUqK8Hpt04b3u3UUz+JBQIuRyQSqasWel/HO2HmbW9+snz5ALss3NZJy5bVa1Ufa3t7dpdyO/r3ut3xcwuFgoTqwH+edcbi3hf2Wnp0x87vt2jRYr8DdhKkqwFpPAgyQAMaXgmaIYiHdCqKHUaZnDjsVe/EYeHnU0OZjt8tkE5alTZEkLZd8Pam7kDyDIDr9bpZpYGu1H6/f3dpUXEWwFgzhGYYNAG0z4g+0WsPgGaXfSM6hXESAKOsNEDzX3yhx/5SPuwL3Pb0/5deeWXCgw8/fK/Hn6rKcMKzFBtQLtjqDaFDth3mRMLOLhIB1+twODSSpVigpNidkZFV7kvx5LZs1nxbq1atfvjnyae/07Vr5+/9+ylKXbV2bfdhI4atyspuFjfex3WBZ/TeImk2O7IKhzjhaDWntc39NU2U6qNHYUZ6evikk05++4Lzzl50xNHdVu6vCFsyv2xVvQalrlevwX2uYoJjd4dg20kd5t/4X4DIKVHMJAronSmz/ZTeUvNe9XPBK1qeXvjzjCKP+RO5FFfc5rLBDd1+OeCGS3cwSO+XMUg0lKv8OLJ+Fmb0DuHxAEnYKaec/PGchx89b7/sug4bueOB++a88uoro7OaNGXTfNsPGcdnV8+xq5tb+GRgsROI9u7iCUXrD9xPwPLuQHTKFIlJsV4XXPjylSOvvLNt8+Z11inb++w/bMj3O3buPJo9nlGmr4jScET7whnPagxLxIVC3JtQ2pMJoLVVReLP2o1lOTlcHqQWLQ6JdOp0+Mf9+vabd9wRR3xanxlCEqStsa7wBeaunhZIa0RKiDS9nNTUdNoVOISatrl+itT68vvrcG/HP2IWLT4299u71zTP3E1GWEvo4VCfrTbUzx7sIF3V8XNPZcooZVZZErZz50567NHH+p9/+ulL/sqrHggEsq+47pr/bPj9t26oHnR5PRQNaRwhA+xsasbuE4gEqO0vguO0ATyu7pAk9u6oBODw00hoooBZLeiiiwcNuH/KjTdNr62yInF8Nu/cecQ5F5y/LrNJlgSJ4M68XPKlpPJMBi8UvFjwUgGIo98gvlfJK/5huBHYVSpnN8ULxpZKQu/sdrtjvfv0emr4kGGPtWtRe0+VgxukuQ2EygUJBtMaouUQgzTb6CIKiBCZMTI9KRTQm1LM1eM/TY6Zc0F9Hg4z7/HxBWvnPtjEH4CRQH021Qg+mwTpxIsIf+PEBaZJwopUeHdgWg2w8/v9mz9asrQD/Jn/qptg6QfvDps0depL8LdG9Rz0wy6Pn8E5MWJmTxFFYQqHk20W8NryQuFCJxKpcMBLXKxG23FXOnSZwRgEy0qpU4fDNz71yCPnNK9HVL1oyZLR99xz95zU9DRReQirVBTZWC8ZIc+LN+pOeIFUb5+d+HISMwpRhMQUSDhMPq+XzyUcCvJL4J+nnb704ksvffK07t1r7OSXBGkTtfxww4qRIWkW9WB1o8XfzRg7dGmSQlE1kwpi6XToSaPbS9KIOk+/ir4Z+mu6tu5wCu2AlVm8ScRf9bD9vfaTBOm9gbSN2aos+u7hd0R9eXl5NHXylGuHX3xxjX2V98d1X/jaa6Pu/Nddc5s2b0YSWj7p8NkQ6gcbeO3GBLZixXa3s2kPVnYoitArWwBeQYOI+8E+b6grxO8wmwpRqCwYnv/ii6d369p1dV3PZ/o9d73y1uIlg0FXxWI6uTwePh5QFThmfCEvgJeM/fLZ00Oa2AoL52VYnDxbAeAlYL2wtCioE9HPsDC/gE488cSV42+++eYuNaiqTII0gzTmVyEGa1EJhUjaqhjFix4tbpx+Cmg6Rd1O8qSfOC/lsPl1yq6buXcOLvp58SsZShGRHBYl4VWiibrefA3zcwc7SFe+apU7fgtFhOA8IeOT2NuCf4d/R3ko/MGbbzWtD99Zl3tmwaKF4+998IEHEVErqpvC0SjTGgA0Nn5yu/n4AHR2gg2gFe+QbUXSTBMkFJMk0h72zyzZg2udrHBEHY2FKTXFV7Tw+ef/0ayOVYkwfhp7yy0ffrnq67NB2eAY4aXh9/vJNCU+bk9KCr98hL+HsJ2tvIg/IPGImY4dUeN8GNgtAyesA36b7WUNE9Xx/DLDLATLpQMHzht91dU37+0aJkHasI3HI0Syxi5VFZSHjN42RFGoPNxkuhQKyAEKRDLpkHajB0gtxy6uzU1uhha33fW/JzZlOLaTo7wUDdwsBUlS3dFg1R21uQFqsG51IM2dpk1hDBQuL6O0tDTWSsMl7pKBg+bOnDp1dA02vV9XmfXIQw88v2D+hIwm2eRA/8XCQvL6fORPSaHC4mLWQKNpLrhd5p11naNmqCMgOcR3/vs+mnDh5QQAhfQNGmUEUtFIhNq2bfftay++2KM+HPXU229/5a23lw5u0jQ7TnlIVqIQLxkcX5zG2QNIQ62S2O4rXgqvo4BJOBcC6LEerl8kVM4eLrimoD9wHTt37rjlttun9zr28C7VVo4e5CCd8Iq0OGkkEEUkrQpeGj/LLjIjBkkpLgoZhVSuu8jjOYq8Lc7qJbW48f2a3P1mZOGR+Wtf/8ypbWriMorI7XCSGQwSG4Hvq1tcTXbQYNc5uCPpPXUZty8nHmZMu+3IK9XnZ9ACMLidKuXu2EmvLny567Fdqn/A/8zb4q77/jX39SVLR8GTAglN2KnCLCkUCROOs0PHw79v1fKQ35o1b7bJ43YXbty8+bjvv/v+nJzcnHSsj89FYvofgNpOLOLYcf5oCcayRFP4UMMJEH8fctkl99987fVT6nOO4Kjvv/++p1VVlVF+j7EFDVJUVCSkei5hhJTYacfeH4I5KFE4wSgJOsqOqO1Zg60egbOfXb1o27KqqswzENAsJSUl+tNPPNnvnNNO+4NyLAnSLHK1gIITiMx9CJ00AFqTiBQ3keKkSLCUXBkOihoxKiuXTV09VMpu02s6pR85T/L1yq3uZjHN//ppx6/D8ja+9rTLsY3cEvrQmRQpF+2PFNYeHcxLEqTjgGz9kBhd2soJ9lnmyFSzTOtVEZ1GwnRyjxM/efzBB889EHfRmInjP1q+bPm5KFkH1dGyRYv1N98yfmrXo49e2czny6vumL5Zt67Ha6++Ou3td9/pk9m0WWJr8WpPAdGsy+G06B5d+GwrKoBUW/bJx4e3yMioVxcaWIne98CsBd+uWXMcmsZi+4ikUdKvaRVdEKsCNTeRlQS9wW6Htnl/FcWK8AgRCUlw7PgO+gbVqOyTaJr8e0FBgf7YY4/3P/+00ypVXx7cxSyMjwlKV3iPW4I4jnC4/xE4a4ujBoADyOUoGUqEdEmlcNBNTnebmCft6Fco89C3yePLIykkU1lpVwrmdQ/kbbjMaZa5HBQkmUJEEmgVnTQrhJIrOvgciGfsb7DPxg3StvbW5jyhfLA7q4CnhL7WLvjASFTI0yqkXdVdJC64wi2qaxQqL6dHHn/k3DO7n1RjxcD+vPBDrxzx3a+/bjhm8qSJVwzqO2B+Tbc979VFU+6f9eC9GfAkQcTsdnMUbvPAezpvW+KGiPS8M//5/B3Tp19d033uaT3w1HNfenHC/Pnzbw9HI254fHhSvIKWsLxIkCjFIq6R0K8jkkawZZteAawTDaQSZwX82Xg3cnEk+D9oFaZDFJV2F+yKPf/M3At6HH98vLtOEqQrgTS6B4tEgUyCTyLDISJq0ixaQuYKREMNiHUkB5mRFIqEm1LM9JKhmGTK+HuUJKOc/C6dZChEWFAJ6gQbNyiqYppnkEMHB57kpBsrJ81RlmEIHwurtBtcJYAGVYTw4rCLPhBZMahbxR+JD3xVcElUfYBiaNmyxdq3Fi469q+U5NnHtGvXLl/YCLc9tPmha2sLlvc99thz8xctuho8OwOWrot2Wpb2ujqQs0GaX25azPxq+f859td555v5/rdf+8+YF+a9eFt+QYEXvt2IqFlWZxrxwh1FFu23WEZoXy/D4OPH+tzIwCruSRyTRJDGdQbQ4/qT1QkmGg5Relpa/oKXF3WxKxaTIG2zDUxzSGSgMSxL8kIEyBaRNBKHAG1I8iAJAlADiPEXgLiDZN1DhKSDrBEh0kYfCrwhDVVsB3prXjykyQbF1HKOyp2agxQ7eVnbO7xRrN+4I2k8qHahhGiA6uDf8XMU6gGwaWi8KstGNBaTvT4/lZWX85W1TX0YBKy8RdWGqXbJeMGufJo+9dZrhwzs95dK8up7C+bn5/svG3X1ltLS0gw0RwADwHwuni0kTG3hdMKOrGpEjnfyc3No7rPP9TvrxBPZn3t/LYisl335394PPvjgY7sK8lujWYAvVWjCQYfYMkKAbNxrRSJK8fpZyYEmu3jx4MVcHUjbf+PtaTFOikIpgusLSuufp5/671l3330po5L5VWsBUwcrN5p495sAabeImiHJk/QEDw9rsCHZ40IXKDMkAhwjI6wCx03RsJY5brTqkVQiA+XlgHX7YjlIlw3SlAjPfVSAdDKSbpAGSzUpCwcoI+kHeRf3KoxG41I0KBaioXLq1LnT/7Vv1371W2+9NTE1LYMfcETegWAwXsW3J5DGvcXtlsJh8ro9RW+8/16bbEkS+q4Gsjw8Z86s55+fNzEjK5M5YEhSGaAV4f1R7WKIv8uGThf2vPDxGeMn3vhnne6X33/T4913Phj/xRdfXFBQUOD3eL2c8GNu3OW0uo8LiWQ4HOXejXzdg6Licm8gDYDGOgBnvLhR/KJFY1SQn0evv/7GCV0PO2x1EqT/ANKiAtGOnFmOx8oP9J3DywyqD0TPLsFguPFnjVTNJHbLQaKRZDIVZBWsm8xUSUa0jBpTBn9sXwW8Y80/695qINtt3JE0J4usBxVRFaIulEtDSRAMBCgrPa144aJXOjXz+Xb3+OcZQcMwXACBqFZBfVS+kJWlQLIq+gOC04Svx5WXX/7QhLFj/ja9DmtyE65et+4ENOGFFI45eyTsYkI1kdjjUWxLnL+Ipk2SdI1aNGu+Y/Err7Sqyb7qsw6okF++2dxjxWefDf36q6/O37R1SwtcKxYAWNE/v1RYDC1oEJEcrFikKppDeG/b5f4AacyscD1BYfW9qPcLt0+bfFUSpCul0tFuvuJG4Dc1887MEoobJC7NUxmkQ2Y5NwN1sb4SQAxPRnwzSJfYJIYkUyE55hKzFSVggTTesIjGEXkfzEDduEHa1tDa/hCQkgGg8btMFJzz2GMnHnPkkczlvrp48XX/uu/ep8GDaihXthQDlU2cKoO0pEgMbGjDBF5z5/Yd9OWn/23fvHl6nSti6wNkdflsXl5es0HDh201iZw2p4tybcHPV302Ejq8oMKPqzAN7atlyz310UzX9rjBw6/dsOHsz1as6PPxp58My8/PdzZp0oRn0EyFOFxMe6DDzt5AWnGoIleBgA1mWuiFiVlXJAa1jP7Nf1e4kiBtjyCDq86l4cw5GykW92xFvvxmhCxPFKDINkeNFvE6omh8BoZMMdIVnQwnom+FTM1Bqg7OGv+3InT8KCt4BJkFP7ij6cYN0rb5Dh5APLQAaCxbtmyhObNn9+mZILdCU9q+lw3+dcf27e19/jQGKLuYogKoq0bSCm8XKhEUiMDQ55QeJ33y9KMPHRBJXm3BzoqKlQFDLtuyMzf3EDZpkiX21GCr0z0UkXAoxYoIhcpKS+jN199o275lyy112X99P7PLNH2ff/jhoAXz589Y98tP7QCyKbh+lifI3mZCiKQxu0L0jMXtdHCBS1ZaBm3atIne/PcbPRoBSNu3L5J6SOhVUUpYV1nonxHWWi5blV7QmJ4ApPH/iFB4WCBtSlHxGQZnEPtC6SFDSseJRfDOFoCDG5FjZCoxiskhMk2FFMPHvDa4M6Y7LB22AGn8WmHsZDfnrChNr3KHcsRtnS+fK0Qj9vlY511dUF6t0ZqtDT/QypLGDdJ2lxU7CQhtM4oXxowZc+/YK66YVhUglq1Y0feWyZOWOF0ewUdbjVL3BNLgND0eUY2HF4JbdVDOjp0075nZ55164ol/WYun+gLdkKuv+nbDhg3dQB8A3BD3mFbSsDJQV46kMZ5QRCx4edGRR7Vt+3N9j6O+n/989epznp337H2rvvnm+MxM0b1wbzMhXGPIM+12adFohF+4UP3gBX3t6GumN3CQxunjS4jChZ7ZIYAaSUDuBiF8eA0Ixh0w5hAnLxmQ1VhTERPgy56Dgn/mbLrKka4OAAa3jH3oGgFaFZicI3GhI3IGyFnyOn69Q0cN4I2QjASjbkXkctA6Tge/BGQTdIlBmh4iHAaL4kkX7wkZZaTIdCuka8L8nc3OIOXDF25eUyYDtogWwyIbKMBBiI6b2EJq5r5tGs8GcRvkE0C66outvndqrT7fwEFaEhNy8fIWCsvEBxOcKvtXcNre4IjptFNPWfLQ3f/qv6dhuvL66z7/+ZdfTmV3OTBkkH9ZUZmCyj601HK6KKLB/IuIVRExjW9FdN3GPpo1bfrTO/9+vUutLsUBXHn4NaO++u2333pAiyzoAucfzJfE4VX23oYioqSokBYteqX7UYcd9k19TgGKjgIiTxM8RZKEB7bOyxvvLr181gMPzTaJPGgrZhfIIG0FCgxtxVBJiTZeghITRS18hpb8EDh1wQUXvNzAQdrGI5y5pWPmh8X6MqG7NElxOpl60GKQvemkOkVyUI8C+Bzs1cE4ZZsq8YPHkEmS4iUJkTXAF3SGHiPFxMAiysGHREWSXfxi8IbQJilq+VKL6a3gorFNcNGIsK0CGTcoEbw40CUCNyD2g2NxkCxD/odjBSjrZOpRkvACgJ+IAQ9fnUzxZDJIoDDGTljE7644SFt/sQ1y7e843iRI1+ph3Jyb267nRb031qQRLSJhpjpCQe6KjQhp3Jix118xePDsPe30u/XrTxg6dMjXWU2akAbQZe2t5TFjNXJV8B0KIjJYvyvbLwPDak9lmHTt9ddeOWLgJS/W6uRquTKAbdeuXVlNmzbNlyS7dLeWGyGi4ddc8+3Gjb93UyzbUyTVGaz+sKnKIA3KIxgopZdffW2PkTQa5WplZe5IMOgrLytL2VVQ0CJQvLvVrt2FLfIKC5vnFxW0KNxV0KqksDhz4++/d+x9Yc9598ycWScDtcTDXbN+bffxt0z6vCwYdEEFwtSVjICL25ZzIYxsWucpCctUntAzaIvfO3fu/F3DBmn21nCySsKQTa4ElKUQbl9SdKusm6kLO9LFzzKZskaaEiIExAr0zRwKCcmdKKrASAkdNH43TQdJ5BGgLJWTYUBDzS7mcRrEvjiiGAY8s1UMw5G0wc0DmPNmXTUiaQGoesQgBS8NRSfSwrDgg5OOOOYYLqrMVWVc7YSXDQ7aMq3BDc2KEj4BvKjsW9ouyqnIMst2gjIO0oIu+UNwUvvnq56faHiRdG1AGg8dl3NrUQKwgjO+5667r+97/vl7BGkM6MTbblv8ybJP+/lS00SS0QIvBFtsgRmLifZaUOTrUIJYCSsr8i4tKqaWLVvuev/Nt+A5XW9JXl5ZWbPdhYXZu3bubLF1y5aOWzZvPn5Xfn67XTt3HBoKh9PmPj37SHTSruvNMHD4sPU7tm/vqMIHA8ZGYA5xflWsTKtG0ohoANJvLVna5fAWLX5K3H+uaaZMHjXq/bJwqGN+fr4vWF7uQ0SLGbPt+ez1+ygci1K6P5XKy4KkxWI0fdqtYwf17v1UXc8l8XPzFi689qk5s2c73ZYUV3XGK0wTmwMwJ5Dgu41t4P8ZGRmhBg/SKD4x+I1rFZjIQVJIJ8UGZkS8cLHD7woA00Gkh0lXy0h2OkjXoHtGhVPYAk43d3YmGVG3VcAC3ln3iXgZ1YRKlIisLsisqxYRNb5XBmnQD5ZO0rJCJS6WsaNaoKTIyqMAhmUisHGMGiTJKoM1omzJg8+YFAsGGbddbi8pqkRaVCfVSmSi1ByzCeQnuS+ECcpEcOhiCm5RQxavXan8fX/cjXXeRuMHaS44cTtJj8a4R+HkCROvHzpo0F5B+uecTW0H9h60KTU1nVzgnA2DQlxSLsd77gnZl0iwAaRj0aj1jofbWph/v/rKqyaNHTXqgdpcnmUrVvT6fevmo9b/tv64bVu3dSwNBA4rKQn44M0B7tu2H4U/coqbNb55n326rHlt9pG4Ljq+9L7k4t/LQyE/O8YpeI5E1eEfddIVkbRoImtQaUkJffHJp9mpqakFlUA6N7fpmT0vzEvx+fiFBqUFUvW4Hvgd29Ykk6kIlsHJChUV7Kb77r7niovOP7/G5e17O2/TNL1n9eq5LRQOZ0LJAStUBF54yeL8eM7PCVJxrnai2S7igYdIgwZpPN6a1YIMRSEiKsSUQQAWLqAEzgcKDIAztMwcPgM84csbJc3tpajpIDMmkwEVhuYhBeXaaimpaikpcpmgAww/UVRIgmTVJFLxRkbkbXl7kEZMdXBFIo5DRNIyysp5sSJrm7W0VCS6JjSWhoyEJZI/LjJMF2mak6K6QYqKeUKYFDlKDqdKKlhx7NYgUjGT4KQldqSRwV8VukzmqZlr5xUs6Z/JFY8oqMGi6jB5quvjtT8+17hBGoDDIKBIcb74pjFjrx96ySV7BWmM7L2PPvrggpcWjM/KbsK5FWzHpj3Y74HLqIUOGwn4lwUAACAASURBVFNn5j3RHYB9jhUydJ3KA2X6G0uXHtK+WbNqzY6qXsHfdvzW+qSTz9p6SOtWpDgtD+sErtQhg4YTAIrnKxYN0xEdO/34wjPPHl3Xu+G7Deu6jBh+1Vrbz5mLWMDbolHsHyRsFXvhbBBmhqZZ/sUnn1q8YsX/0dX9ggsv2JSRmUkASLSTRl6ADY4svw3d7mKOJ8QkwgxkzLXXTbv2qqvurev5VP3cdeNvfvuHH37sDezAc8veJFbvSn4yqxgzJVZZZqT5yxs2SDMgi4ecEzemuLhY4J+BCygbuJnB54FCMLmhrAEgNdwUhdeGPzvXmdJ0hcd/yEpyNVlPpKRSSeEZ0ZItx4eCm3qQtoU8DmRcQVOAbgaZopOE8m/ekbAaFdI9wSWLyFqoNkR1Im4ApKv5SFlFwoAqoWTcRzHNSSEN0YOP3L7m33jTmv2PvGnrSZazo8GCowLFOUfpkbw2KS6NXFKIjHAZqYZBstNFFAGhLvxAcAygfcQLikixOWoeG6HfBqZrCgyeAP5ETk0+wBWPjRukMewAhEi4nJyKylPqaRMnXX9J//77BGlwqf3POzc/WF7u8qRgJofUSgVY2yAtevJpHIUBpLmNE4mEc6C0lM4586zFD9xzz4CagM6yL//bZ+yNNy2FVhudv0E/JIIGAoR4xCe8M+jITh3XvfDMs11rsv3q1nl58RvXzZr14NNoaYVOKXiG2XsZ+mG1ciPYxJIC1llFI9T92G7Lnnr00bOrbnvDli1d+vTvtzajSVa8sIypJxYOmDy51hk1ZY6iy4NBSvWk0Omnnf7W3bfeOrCu51P1cw89/fTjr7726jiAsdubIhojWK3F7MiZocN68dqJQ8yeDj+s3foGDdKCihVcrO6IAT/BRjNgM4jxXe0kkzWIMkmyg6PmkJROcsoRUU/akdPUNmc+K0knllZ3QczAh12iGz+8R4uu6ytpG8mtBnm6iYjc0CVWaDB/LUNfHRU4yPQGXhYVES2zJ2xGwHDNgApZdUxyk675yDBbUWqTM26jNqcslDwn/cF20TRXeqjw+975m764Uy/9qVOmq5ScoEci5UQO0C2WtJtfWOJLJDItTroKSCPajiloFWZH0gdShte4QRoVZyy/i0WYky4uLKLbJk+5fvA+6A77fnziuecmzV8w/36HCzScSKTZRkwiOLGc1BI6dePvKPKAYgiexTk7d9KiBS/16H7ssav2BTxvvvfe8NvvumNBWloGgyV0vEIlJYIfjgEQRUsyG/vrkTCleL2BT999L3Vf297T/0fedNPqH3744R+YJTAfDWtSdHpJUDzYn60K0mUlxTRz+q3XDejdd07V7SOS7tmr56Z0lJvDHEnXmSri8+BzkMgwRQIWVBTUFqFAKUryS99Y8FKr/dXx5o4H7n9x6dK3L8d9gOuIgiaUjtvAnPidmyXwDCnGlMhZZ579TsMGaVt9h6hW1UlTkEYRSTkx1QfFCzlPCpGZQsGIgyJKU/I26TLH3er4mZJvSI2mgObGmRPycz58wEHbKNVlkgyLwpiLJAVVhEjuxZiuEPUwQr3BPrESOk8I5YXCbxBL0SHLFFHEyyImty3Kbn/BqVLWVZWSHtW+NADW2z8dGdj21eNmaAv5POibhrZfFtVifQiZfhHF2+oXK8FpPWi6bB+XmIEcSIiOq0g5YStQJ66WwShKBkXMFhRWT96e2f2J1nUFgv35udokDpHFZ48H0BCYakdjNHH8hDGD+/V7uibHZJqm77y+fb4PhaPtMV2GFE9wmyL7DyC2jYgSNdnQD4vSaZFY7Nyp0+oXZ885YV/7fP29t0fPnHnnHH9aOkftHFskCCrY6J7pD3ZAYqosVF5GLy946agjO3SotQvel9/+cM7lI6/4GHalrPOGXSmaGlhOeFWPtzJIG7R7Vz598P4H1Ray5AYCTc847dS8pi2aizw8XlxWJI3kIZLxrOACN8wBH8ZL51nJqGtGTblm6PD79zVeNfn/JZePWLNj585jMTsoLQtyQRPoKsx47OYANvcOSSGWWCzC98qE8RNu+Nub/uMGTLQD5OjBtgfUoCvWiUBFABh1gDSmLxJJPOqiJDsccVDYaEWOjG7fpxxy1lVSdp9vazK4ieuYeXdOyPnl7QcyU0pIjgbIYaaw/waZkP7BXzos3tCIpC2NNkBak3RCukKOIoIWjnqmqVKZI5WC6mGB5sddebQkXVgr03LTfD81tOnre/N3/N/1mc5ccsllJOlWkhBvYkjzKMqHh/1pGBddIieaFzDtAzaGBZtCVXJAy9IbdyQdl1QZ0NhLFAyUoYFsjUEaV3DpBx9cPvnWaS82b9mCAsGQ8AJBVR57PYiX7B+lauLuxfOBZB+auD7y0MP9zjrllL26xS374qu+Y24YuyQtI52cbjfreRP1u7a6QkTwCEogRzWp+wndX3v0nnsH1+a5gnzvvH79fw1rsXa2s5xt88kFLaAlrMgSHLvd8Ja5eebdJerQrv038+fO7V7dflEJOLRvn98LS4qbgl93ud1cSIQKP1m2uoJb/jpaJAqDKn7xABzDoWB00UsLu3U5/PB9Bk97O+c1a9d2v/zqq1alpWcKXxJQK9zJRfSuxAtXWARIIiEcCvL/cc2QEJ0/f8GJf3uQ5mjABuVEiYqlHebIKxIlGREsbl4oJNAw1lBIlz0UDDnIn3VE0NXq5Guk7HGLanMTVQJp05TC629YESv576kes4BUgHFMvBDYmlQWrnaybr0wgIOyyQk6PJxKDPwG+AWVdMlHQcchlHLoWX3V5pPfrvMxBRf8o3zbskdjpRtOMbUguWSNFD1IihQjRUZEEOZISHVBuuckUzPIjJokc8GPTdWI4z5wSxKkazL2l111xdebt2w9QVYdFAE4IxGG6TsS4XsBaQTwDHgxjZpmZ296/rV/H7M3l7x16zZ0uXj4ZWuzmzWl3UWF5E9Lq1SabZvSiaYDQhnhcqg8hZ854/Yr+tZCFXHFyFGrNm7f3j1qCM9tfqkkRNB49rF9RJ7YHyJsNjOyOOucHdvpsYce6HfBWefu8cUz6oZx//nuxx/Og9SuLBhkd0EcK3YHMORkq8dNJqxCVZEzSPP7KRQsg5S39Lnnnj8HTnQ1uUZV18ktLm43fMTwrwqLipr6fKkUjkaEsVYwyDMigDLoJCx4QeAFgpZoAGz0QSwsLAyv+myF/28P0iI8tSbkljE282M8dbe8MBSUZjuJwhFBPyg+iphZVKy3oGYde04j17FPSVnV8861GXyz+I1/7P756dUp6lZy41jCeDMCADXSlQjrs7ntFiR74LvwvlBg+g8lhpMoFCNyOihKWRRN7faV/6jnTqrN/ve0rpnz/KDCnP/O0sO/tkt15JMUKyAFFWheH1HUSqTC7CkOxkKix+OKAp0kSNfqMtSG7tgfkTQODuXGY8eN/TgtM4v9plHFxgsCBREyVwvWeFYAaiiiATjcfOPYySOHjZi1x3vJNH1nnn/+xlBMy4YVK2xWEfXZcjg7aaiwWkjQE+XlZRwVRkJhY8qUqWOH9Ov37N7Mjj7/8stznnv2ucd+27TxSM2Sn9mzZdtQKS5BUx3sGogGCeJvBitZEFW3btVq05JXXj18b4b/8156aeJzL74wC7ah4KZjmojQYUhld4EB5YAol3lwtCeLxRhMkT+IREJ06aWXPHfpwIsfO+Kww36uSXMBJHw/+PebQ2fPnfOgpmkpNjBjlsAad9a1iwSmw6WKruSy6HcIbhy0S0lxMV054vInxo8b9/enO6q9meJG4LhBoxRD5Y7iJUXxU6TcSSE9lVKbHb9Ibn/WVMnTe2utnsC9rIwEXvF3D69Wo9938YHwRVmuJW3TFVFEIycW0UhEEUW8KV2IXiEBlGQKGi3I3bbfcLX1lIX789iMbZ9etWvT8id9SiH53BrpwRJSXFClaCzHMhDpA5sh+YN03DDZh+/ALslIuqbjP+rGGz76/vsfz+VqNYCvgvxL5W4AVWkPUeiisBER7C+dDiX4+ptvHban/oM4ltvvvnveJ8s/uwogBo22nbBMpD2wX9xPMU2AG6bsKW4P7dq1izq0P2zzxZcMmtOp4xHLnC6pPMWXSTk5Oc13btvS8bMVKwas/GLlOQCucCRCTlAMlgQN+wZIJ+4HgIzth/Fi4o7hMT4fNIqdOWP6lQN79dlrRSWSh3369d2Qld1ERdFKOCQic5u/F3I4QR3hCw10uXOOrnPT27KyUqY/MAYtWx7yS/fux6/setRRK5pnN9vuTXEFUty+YDAcTikNlvi3b97efdXqr7ut+e77c0pLyzIhH8T2SssC4hq4XPyiBFCzNpqLdoQcEEU0+BuoUVyzSLCcFi5cyDz/3z+Shsg7kebgKj/OXpCJUmlUGkoqRTSHGTVbSO7Uk9d7mp92jdS074qa3vy1WU/fPPqpkpyPr081ZH77oZUE5HSmjEhaJxkJQu60gosPkBacnQM+TegQrmlUah5GacdNbi15e26vzb5rsq5Ztry5vvGz6UW7Vo5JTSkkLZZDHHTJLtIjUbbAxM1jKhr7PUB5nUwc1mRkK9Y5EJE09r5p06a25/Xts6l12zYU1UQ06VRQDRt3a2HgxJJoSgR+EyAN/hrRYd++fZ+9e/q0a/Z01t+tW3fClaNGfu0Gd6vCa0ZQJrZELLETtuqAakpowfE8sDJDddDWrVspIy2dAQg0hd01G4ALThhgLDxJeBogjpm5lMrUGyJ0gGU0XM7abxVOf6WldNzxx3/63ONPnFOTKzd++rQ3v/xq9QCUZuNYQDMIgBTHYHPdXNyiafx/uyM7ABUzEVhC4P8AcKZLNKEUATTZToWIlPE3vEwYeJnfjnICFn+z26dhPbYxZTWLUIFBbcL5N1jUGgade+ZZr99z++2XiEnSl60OJCG57zFmILRuEJv2sCpzNFMlyZFBgYiTFHdTSm3Z4yrpkNte2PdG676GmT911O4Nb8xNxVRFaPyqAWmrqAWCdRQ0IoItD5PCUiydAnKXbRknPnW4JB1eubdO3Q/rD580dy/qUrZ9+Ww9vP40M5pLqgnPYUxSJYppUIToiKqEN9UBhelkJF2by37H/ffPfWvJ4lGIQMGvRsOoft07SDNFoRvxnopoDvDvVxd17XL44ev2tO9xEycu+fp/q/vCFznRS4KVEFYUCCkgJH6gRNAqCsDjcjrjBlBYN16+DsAyrfyM08HrMhWDXImlVBFJwgrvChwbAzmKgeIqGU74lbzz3uudmvlqVqCD6s1BfS7d6Ev1S1xKb4kRuCwbLxhNzHYxnngBYAE425w1g7eOKEsit8sVLynn7YjsfHxJNEeym+tiOwB25tf9vniFowB3w7IN0ESSVOP6hbLFS9/uYM92/v4gzQlCK5WMm9ECbO7OqzSjvLJW1OTQUx93HNblNknqWa3euTYPwb7WNXPvGFX42+tzM+Fqp6Pzt4sMGXK7GEmwMIXpAAtLLVMnC6TVSJh12hpJFJCO3pbR47E/FaTt8zB3PX1xIGf1A7HAz21S1GJyyWGiSFC4+DnhW2IVw+zrxP+0/ydBujZDu7O0tEnvXj13+FL9zkAgSB6X4KbtSIvdEGxbXqvRKaI7FGOVlZaSz5tCoWA5de7YYeWC5547ZU/7xmyh36AB30mqkupwOhOkYoKfxiKia508PpEMY1ALhTmaRGQIgMY6+J2d+7xe0sFdwz+DSDQ/iAipoL1UbWnIWmwERApK3xXauWMHvfbv10/o1qlTrZJ5D8+efc+L8xdMQ8EMFlAYSL5GIzGRTAwJ0ztotfk8NBExI/IXnXUMdh1EEYy9AINQfGPz6bYSxU6CchFTJBIfO+acdZ3HiouF0OcyKl5WSBTiZRcpK6fHH3u871knnRQXFNQfpLmijhv8CQe3SiZVVlkyzirRC5n1rxDGW5Vw8f9XSImYa4PO2DYXAg9HCsV0WBh6SXFmkO5s/7a33UV3SOkDay2pq82DkbhuZNPNd5TueH9GE1eMKFxGpKCNliheYQcRJOL4OiJ5qFCMIw+QHxEyDZ10h5NKjaODmR1ntZbSjy6q63HU5nOm+W8PbV83rmDr6vvl4BbK8GgkqRpRNGS3atxDNJ14Ma0KSrgBsjeIiCDqT5XUGKS3ZXZ/4tDanPefta6gO3pt5B6HVtW9bVWauM84XcyUXYUEb/LkKWOG1FAnXd05zJ0/f/LjTz5xX5PsbFGhZ9EFFQBdAds2oCIhJto0wSRf+C3de9ed/c8/88wlexonu/rQneLl6TpHvAj+5MREIpwdoRgSlZXxxKLVp9A2g0IUiv8BtFJTUxm00c8Q1quY3dkLLDv56EFFWBSAUxVVlqievPuuu4f3v/DCOuVyLht59fJffl7/T68XPDvyMvDIUSiqa2y2b0fUgoax2pdZVCtmAaAtId0T1Ieo6LSPFeoQnhlwvgdOliJC5vOwkoSJdBH+j3PyelxMrXhdbtq5cydNnTx58sghwyoldusH0qx0d1uNV0NclgyOWBy56GLCraP4T1afQH7I8baXRSdt1UN6eTmZsk4qjIRMvIFR1iwL604zbJdVUczwUZnejCRXp93pLc4YIbW+8v0/60Hc03ZLNl32HgW+7OkpC5ODi1ZEMhATOZb4SzG2jeTXDQMZTMxjJDtKiRwGhWWZissOo+ZH33OElHr+L3/l8Zuhz9oZmz+bUZzz1RUe8zfy+GNEMVAf1vVi21K7UtIqpWdAjgrDKZhLkU4xtoP18lQVhlD1A+qGB9K/5G5uN6jvwI3oniL8xCszqZWKP5AUQwky02MCICdPmDhmyMCBNSpmqe7+gP532IUXbC6PxrLgjMiJc/DBpsHAgQiN5V2WiU+iMoOlczIqEVVyyvKmT95e2nFvSoxFb745esbM2+cc0qqVSK7pGvnSUqmwqMhKwIloETMzNgOCksTqps3l6lbikhHAKrCxvSosJ24L0LhjOqsrAGCQDoJDFy8GnUJlQXrooYf6nJ3Qyaa2zw56FE64bvp73/2w5jR09QY3rKPiEOE7rpGVtLTB13YfxH541sDPtEQy6jAsA6j4/6zZQGJNhygmEolQ4QkvZgU2ZQQaR0EzalWmwt276aoRV9w3YdyNU6ueVz1BGnIzTOtFg1X2r0D0K8wkBEgbyFdiwf8EUFdEYhI7viloKaRHuMMCG5/AqlO0ZhBvJcVN5bqTotSUUpv3mO48rM/DknSyhS61vVR1X980lzff+s20nHT1d/JF0FwWIM2hBVuQcuTEHh6IqjXRfFb3chk4OQJkqCEqwxtUa09NskfeLh120511P5q6f9LMn/ePWM5/Xyvbvba9T8Y0FSDMBcdCkocrpimikQy8E7g7TZhI1biC0jQcZOoojFHEq6leEr6GB9I5OTltz+/XexO6W0djUM1Y7znrkiSCNMu94LGCB9YwqWh3Ic2YcfuYwX361BmksZtXX331+lkPP/KU6ksh1UpKARQBAOzdYfHG1d0l8STg/zdgmnTjjfv0EXnnww9HTJo8eX5W02xRxAppKUeWEkUjWlwtgYjQbrzL/fosrjcur7Oi0kQg46pGBjJxH7DniJWQZ9SIxfByK338wQfP6datW60ojurOHQU0k26fvuCDDz64LMWXSqaiispKLoQzOTmJKBrHZKtWMBXGMdm+QHakbNMarLKxxtseW6xvv4xsJQlTP6qDty9mNgqhD0lO7g6aMnHipFHDr6zWrbCeIG2BMUaDO4dYBb1801qlypaXhQ1ewlPCAnf+HDK/OskosQY4R8JEsagoEnGksJwuYGaTs8nxL6d3Pnu8JJ1To1LuukPYnj9pbr73iZwtC8f61Dzyu9OJgmFRAc7nAUkSLiTPEyyQRimw2yp4KSNdjlK5qZHsaEvhULeyrGOuPFzynZn7ZxxrTbZp5r8wpGjjp884tE0+WcohpxQhRRJdYSDOE/0LImRImNDC+EaUIUuQE0ZRuWjAoemgA2nIus4+58xNqAAEpWUvVcFa3BYSR4J46DGl3Z1fQNOn3zpmcJ+alYXv7TpeNvzyddvyco80ZIn5TLjIYbGr9RDZ2kDJAGhJ3ez/Q2bmJCr58O23D0tNTd29t319/9NPXafPvH3Jps2bD4M6CJwqJG0O1cWRNLaJl4SdmLPByp7i29u2edvE47RbiyFytfXQ6FsYLCujPr0uem3S3XeP2lsBTk3u9arrfLhiWd8ZM+6Yb0pyGsAXoKrg+K1Eok1XcFcnvJrQTMF2zLN048IiVuidq84SeP2EhChbsLJzIE9lWOIHzrtN61ZrH7zv/sGHt2mzxyRu/UDa8laAJ4WwxLQnvgjBEDWjxZPLSmSISFr4PCPCRNUbrNpQTo1ITVAdHEGrKLl2U3HIQ86Mrt9625x2i5Qx4rO6XIz99Rmz+MXjC75/7Zs011aStUJSVA8REiB4RhmY2ThR2JXyXAEvLdsVD9OpEJmqQTFVItmRTfn5qdSkTc9nnB1vu3Z/HWNdtmOaS/3a5lU3F+atusNh5JNH0UnRQ1xarqjC7U9Ez+DaJNaBy+Db7VkEdOAJ9qi1P4YGGEkX5bQ959yem7Kzs1nSaC82B12V7kDJMR5QVJXtLiigyeMnjBly8cX1iqSxzw8++qj/LVOnvJXiT2WAtuVh4HxtztPmRe0Xhg2SYiqOtEqABg4Y8OiU8eNvrsm1mzN//uQ33nxjRl5enteTglmiGjctAs1hgxu2hRcEgBtLYnLQ/h1/A0duqy0A8GiKAPA6/bST/zdi2Ii7T+/RY4+ceU2Od2/rgP6Y+9jCWz/5+NNxBQUFXihUsG8kFDGeKKLBi46leuDU7Y4pCaCNBCQXqSAitzh0Ph/rBc0CB6vUHJE5fi4oKKBOnTpvHTz4kplD+vXbpxqtXiAN8xtYggJcFc1vgTRAVwA0EMyQYMoP0I6yjlgBkLNHoOi6TWqIOOaPgnt2EjmaUH6Zh3R359Lmnc67ljIuf1WqKJWr73Wp0+fN4rfbla9/7lsz9H16ihcRpE56qJwUj0f0ObS7ojA3LW7KCpC2MkvAIsUkUzXJUBwUjDhJk9pQZps+k6VDxu2xAqxOB1yHD5mBt7sUbfvvDK1o1SVeKZdSlHIio4x0GEShVJecJMUcRDHLQAr0CDcaQAeb+qg4Gx5Ib9y5sU3/AZduZirDU2FjbI9CJY0yIkwF/Sp1Lj1G1Dnjttv2STHU9BJecd21q9Z89113aIkBigBqRKb4bkfP9rbs6NYGbCgw4OESLg/Rqwtf69KlS818KnJycrJfX7p04uJ33h61Mzcv3eXxsPaZC0MSLDergrNNc8TXge44EuXPArggy/t/7V0LkFxVmf7PfXX39Lwnk0mGJGTCQzCChKkgkEARRbMqAR9LrUtZFAhxBUFYahVQWcyuUJZbshEWWBGUrRJdKVdXDEsJLPIyiQLKSzQ8kpmEZJJMHvPq7tt9H2fr+885PT2TIQmZycx09g4FCTPT9/Gfe7/zn/98//ed+8FlT1x8yWdvX7Jo8X41Rg42PgfzezuGdrQ99NBjl/78Zz+74u23t84DMHMN2WTKKO1gcPWGKdaVkHrAfgQ44WB9oFPQbBJyHHQmbRT9oMOB1U5nZ+cLKz932Tc/dNZZa/a3F1B53eMEadXEAYqAHdRrkM5pBTalD4HMEhQ19TKH5LBrNnBcO5aIkHdVvWwzFaIa6s3VUuv8pbdnOs6eFErd/gZRYgv37R9flOv5zd0yeKYu7fSSQ1nl9IJ2cMPkYLBSpq8KpE02DRk+1Gzx8CL7xOdCKsUl8mrT1I/uyGAetcw7+3Z3/s3XTvVkxC/P3juX5d566r4g93pHQ8anYrCHLAs8VewtoGuyRlFweB9CGwD/PwNpgNQd37v7TskPgMMK4Rw7/TDBtq4MjFgY2tDChH5GJOI4cj9x3vn3L1ly+oSAEMoQP37wwVujUqlopz3VsYbXizUpMvwnPDGZgyWklGEsYyEFt3WzWX0sglJgn7Rw4bqLLx7JKjgQwKG++1pXV+dDDz980cNr1ly2devWLCYIZIymtGIyaXMsM5HgT86uw5gWLVr0wvIPf/hnZ59z9k/nz5q16UDnPVw/x/288PJrna+8+uI569evX7H+ud8vMRt9AG5DReSadaT8CFFbBnhzGdAYyIahZq+EvFl82mmn/XbJ0qVrzjj99DWHohQ4LpDmujPv+FtkwV6KV/3gG6KGU6NBWgvzo/yBrjyRU2wPeP/JFINdbDVTb66R7IYTn5xxwscuFZl3pwp3OAZN9j3YQT3Pfndo54srwmgr1beG5BcHyaMaCnMRpTMNRLk8RDm0kpzKCHkDUbeKo/4E0wHuxUYdl40oI4riHNm1FgVxTEWqp4FCllLp43e3LFh+qWj+wq8Ox/2822PKrtVXbX3z0Tta63eRCLcSETZ1Md94vHiQoU0OE/kN/fLdnqEMY+ovB5YqnTYUvEO90yP9c3/Zvr1ja/fGU7q7tpywuWvTcdu29cwfGBxoLBQKMws+ZBOEbG5qys3v6HjpxPec8Me5c+c+v/D009fPFGJoOsZGSmk//9JLnbt273xv18ZNs7q2vr2op6dnXt9A/5woCAXKHGkvla9tqN/d3NjQW5PJ+tlsdtuctlmvv+f4E16f297+8nh8H01MxgnSOkPmFNJkxrqJLuZeZMXmMK2qEKq3hxSIhS0UyGbK+Sly647b2NBxzhWi5bJHp3qw5O719fGOJ1cN7Xj2Wgj912SHyPZ8KkQ+2Y7Hov5O7JEohERQl0Mnks6keeNQ16bNfdjcLIL71d+BSl9coJiGyEo5VIhhx9VIgV9HQ4UZVNN45jP185ddKZqXv2tt3omOHUuivvLYLUF+w1Uy2Ezp1CA5TpFkFJAI0oqCN26Bpuord0x0nJPjJRHYXwTGJ/pvWu15qT+cSaoTAq608Dz/ryDyLMqHAyTtOgqjo8mXRxfbjjv3Rppx6eqpXuqr7zEiNgAAGcdJREFU0sYdFwXbnrgnyL1V4zghuemIIglDWhh8KsK+sccyQjaKE80i15r/rTu+Kta8RtZRsV9Uvl3mI6MLkTsUHZJWlnw/LUuiVTTNPvXfrGOW3iLEx6eM/WEeHFl8dmHurUe+Vdiz/rysvZFcGiDHyqiJ551I0qZ1rKKbbOwHMQHpBKKSCBxGkNameVzKKKn6M6k2VUGwC0K9xqWwUCInk2Wn69Cuo0LURHXNi+9325dcL+o+dcg28BM1tLL3l8tK29bdEvT/8YyUfIMcZ5DIyqiaE3O/wXnWeKQZLBFvjPJeoOZJY/cXfwdVTX0Pf+FONGy+EYS9MWlVWFphBcKfZysZ9iZCvasUpCi0Wih0j+lvnHvWV632a+6e6kmMr3L7Xef7W5/4SZTbUOOJQXLgiFNRj+butgoBLLNrv/9xSkB6op7j5DhHZgTGmUkDxbQLNWqtbEcDkAafNqdV4eAi4bGoT1E0UWQtpIYFH/m0aFv586kOqRx6cFZp8zOrS0Ob/iYs9FLaHqK0i3JNSFR0uZVXpMATRu1dbQaiOZ0zY+3AYuyekGEzR5o3SJkWr01owYyAYkdRb+lojjh/XrmWK6M64HpElMJelENxCY4yaDlvJpGe+0b22LO/IBqvfmLKY7b7f+rl9qd/tLfnkRXN9YMs16oMr7QPXkUGPcEgvbl58R1HT/X9J+dPIjDZERg/SMN+mhPHmJBdMjghc2SQliRC6MWmGcD7/BaacewlHxFHrXxssm+08nxs7Nr19JeHep5bJf0N5DoD5Lo22aDHyQI7qFgSLb+g2+UotgNmDYJKiGxYeRZCpxmWWCC7I81UIizovGSwhsg/65pgcy0kgbZq8Ke5kSel2um5zIGatpJeBWDDINZ2YYmkzOWiQkTSaZZ5q124zSc/lJn/0WtFZvmU7YDzrUopSq9d/sti/x9WZO0hsghmC0Y+VtuWGWOGiSt3JCA9lS9Ncu4pi8D4QBqXzUCDvzi6JqvqrQINKjDYiT0KoyyVrDqqm/vBr4t537plyu4WALPn3hWFTU8+EOx9s67G7ifHRdcgslmsAvIkxQCLqFhRk2rp1g07oBoqU1nlRs5d1AzKOo+UKVXOgDGsBmnoeXDjDpdM8H2wPQDu+vvMcskT2aDmIfMWFMauNhiNyAZ4p9NE+ZCiMEu5sJaC1CxqOeb0m6n91NWTofr3TmMF0aYt636+q1n+uSZr7S6XOSpVCkH9YkbLfr8OutyRgPRUvjjJuacsAuMHaU6tKjvtgDy6wQMLfOFSSc6gAb+d2s75h4wQy5Rj6yR/oVljaPMzt+Z2vXB+vb2XMmjWCFF71oasrGFXJMsFrc6muFhDxYJDKQ9O9QBjbCBC5U41qyhhC5QpdLchKHb4nmUEi2A6q7Jtbubh7+PzmgXDB4k01zpSGgJOmkgiw8YxIYMqKfbzZKXATQawexRIj/rCWpL1x+ydOXfp1aL1igcmOZTl0+W23nV54c37v99obyGb+XnKQbrcCmxkZhOQnqohSs57BERgXCCt1OyULwQLCgHMUP5gOTjt+u5a1Fdopea2v10tjr/hoFpPJzKuEEUKNzx2w65ta6+pcfZQLWrMsdJTdlIpdkqB7b1kRwRVT7YcwaIrRGmKAwgJga+OJh10V1bQGcotC6gtA7x1Js1JNsAYwKVr9vgsbxzi+8istQGsW0NxiLYI1cWE5kpImkKnF47nwrNVQwKye5GiIFTdfzalKB/UUHrGSWuduR+4STSunPR6NduJrb8p30gbhofsoFkd5iNJJj2Rz3tyrCMvAkKum6f9dipae0d0kBnamLn5CpCSguvQir2gN8aMRjQU4OyYjVh3+/Oo7b2rPixmnPf4ZIWQKXW7771y+59+/Z1aZ3sqbe0kWw6SABOF2zYdCgCM2KSDzxjYGPg+FLmCEsUUkIDok8wo6h1U4Bhox4gDPstaFoiV+R3Teag2HMv6Fsi4GaRxPJwlDd0vsrmMgs5FlAdMho7LgXYGmCMAZ/yOze4NzM+20yRFAw1GLeQ1dj6YnrfsRtF43sbJijHO47944UOp8MUV0DGBzi63/ppHRFsDqesZxdUb5c1XbtfTE1/lU1eUs6iQ+sDmls47k43DyRzc5FzTIgIiWnf0GMILSslNLeW1hGD5t/CyabF+zirVRiGMWKHjwUwyZNMMWhZFXki9+QU06+y7m4RY1DcZdy177ls2tP3p+3N9r86rz4AKWCCbSsSNJShJ8ESiyxaWarbZl+5ryhha5YzBsxI6xgIdZXwwDEoVovlm4tNmBur3II+IjUWhNbeHXZ9HnkuV/lnICgfnsTDngT6dS4OlGio57VR/1Jmr0vPPvG2y6tWy+6pv+BvX3Oy4NuviRjGcKARFgU+2ByEtXZPmZ8XETItxaTEqNTHpbh/9e+x2QxbZMUavjXKZkze3Lro3AenJeIGSc0yrCBwkSCtVJ7XUHwXSmgccOgF7/dkSSnfosIN2B1HJLlFfdCLNPPMH6cPp6ceXV/h1h//WU7fm9vzxMxmnh1I25gSUwBXg8oYf096QMRtWynilNqdyPNGf7SvpQztNuSBDg0ETWZlj98yYc9aXnPYvHvZ6tey6+svhlse+jRWK7UDxq0QWWDKBz+LozPooPzv4i4k9VmDqR6A4WrwCMUYJSu9FgbRLBWqlwezCzW3v/2EC0lP5uCXnnpIICLl27tgSZuWSx3A2PZwhVthe6ZcwwrvHZY9QgTRLkRKVvCLtLiyg2afeN1vULjws3XNSPltX2vyrv+/Z/OyqjNxJTRnIaYDSplTapJbbZKCOXQ3WFdnouASCpmTc9EnV5mVQCrlebafqKI5tGkTp3G0kr6Fjbc3sJf8oGr/wv4frKuWGlbdHvU9erXp7wH4JSLg2yVBNjsa+qZxFMy1RT/i6IUiBtF6poEzGPVIapCOXitRGgzXv625ddO/8w3UfyXGTCEzXCIzU7qjUWBwB0pWXrzNQ/l1dPmBKr3IuYFEhlR7xyxZ6knpzs2n2e756kZj1yZ9MZCC47rzzBxft6nry1ih4ZV5jbT9ZUT9RMSRXNOgEGs4ZaEYBVc7W7AzYemFCwQphPDKbE3k3h3gsaIFwEuoqGhyPW0AlGVGRasin2VTb0vmjzPHLvyLEX/Uc4lne8WP+c3+9URRe6ECpgzc7ZUQWXMjZB05ZBQ1/6U3lskicWpUp/rk2jdAgjvHC82RHjgLpzMndrafek4D0RA9gcrxpHwEh17XrjUNc6xhCDJXv2OjbKddGdf2WBRGNxbmq9UaOoHw0i6R79pqmzu+smKiIyNz3OwfeePI/BndvWNjWJMmWOYqKfdp6RxKV0L2H+wkqGm3QnAJ2BUofRwJIGxogar82URCzKSjKDqxdjX8sjwZ8h4qyjVrnLV1lzb9l1US1mMu+pzr2vLxqYy29QR6yZ+0ebTEzpoKKN9ag87ODhwtytnh+tFci72Ugk0ZmLdiCTIH0qd2tp96VgPREvUDJcaomAkKum6VB2gD0KKA2IF3e8Bp1b3i/tLiS2lDUrAYRUoQuREtSQPWUC+fQzEWfXSAyF4+rWw6UOtrw+E29PU9dmfF6qTYbUGGwj1zyyLHTRCVdY/aQ3oNrDCAzRrHKiEAtEsbaLKyacRu+UO3HBoYI+N2q5gsd6xLXqwF2wvUosmtpby5LReqgOcecc7446rpxS6L2v3HLnWHPf1/Z6G4nC3Ks4HebGvSBSkgapNXGKZ4haJtoyVIGab1hHaOfcTYNphd3t3bekYB0FT6iySWPLwJCrtWZtAHaMg+4Yieez6GpZPrl4yWq2YTjn2vhe/49l2LWspBE7hCVwD92syG5p72Yed+Dpx1KJset3N2PX9qz6dE7PdpODVmwivPk+3som20kCupJFlQ9FK7cFPQzlU54taqpRMumcmaNDsDyfaoaaFV+6SYitkQCTxA1+CBgzjWb+aahYe1TEAZQ/ibhNZCwWiifr6PabMcz7oKl14nGy54/lHsv9X23c3v3mucbc11UZxc0OJtSmDIR3udrnxKamjzV11iZNPp5BBXlUZTzzuhuWfyvCUgfymAln6nqCAi5dg7e7jFuYjRditMcnfVItURltoTZrQeFytD2bIoozRt2LPLvBBTJkPb2t1Hr/KtW04Jrrns3QC23/XT57p5fr5aFP59Q5+4kj4YUa0szAKMiVOrqSSCTjn2iqMAOKOyewg4wmm7Hvotozw60u4habiurr+r74oINW8xjaNBIhA1EiwWaKJQUBiVyPJsksmlHsFh/FILGl0W85FDYJOqPWXYXNZ/yz6L24CVR0b3Z2/XDp2L/1ZaGuEBpATaHqj8L1jvBs8GuncOZNWfLpv4/TFNUIK0onyMzaTXpg85ZlO2U85Z2tyy+LQHp6ntMkyseZwSG2R2cANtEfpGdoYWTUtZPLKepQcxk23gpKzJvZUJrXDpUnRTeeCz4H8FRWNWCi36KinYbpVtP+anXet7nRcvHBvZ3/bLwi/n5vzx8mwy6PhkH28i1cpQCEERo5kA5IyTyBC+NWddZ1zb5mIYLLaHKN5ytcbs1Z9IAgSoHaajt6XFgSVTDo9Z6IxyGinFSFEQtL8tj6tKegCjdeFyppm3JTdR+47/sb/LkjdodN10+9PZvbxOFntqsCxoJJj2zMqngQh8wk1b7GAqk1eTOTUOmJm0rtgcmnWLYTrn0uV0tnd/qGOfznnw8iUDVRUDE646V6BTDSwJBH5bn5A45nRGVea0VtWcBxoTKrDlhih0tHIT3DnXgkDEUYM3wWIKXGXhxHpVEQHmrmSjbSan6k67LzH7fw5T60BucaAmYsK3NUM/rZ4U7X/q7wb4/faq+ZjdRvJNiiY5G9NxBQU43SVg4OXRDAbgafCsBWsuFapa3alvXWZvq+htJBau60TP3I3RTjJ5MFT4Or47K4Mw/141KrDOiJrmcb5Nfaie37uS9tS1LbrFaj3uEas/683A81qVp14ZP7t3y1Dejod93NHj9vAfAqTlLs5rffDcgrT5jxoY1uxmk1aoHyoNKNZAoHxxFfvaj3S2dtyaZdPU9pMkVjzMCQj530lAclrKxRFYUkIO3gpelWD7j7avktZpyhwJpZGlKGQ7SnUaqE5Kc+LTSS7aMfQd+zpuMJSpYLuWteiqSS8WIyLPTlBJ1211pDzpR8ThBkPsc4FKJw7VKCKCq5TPOF8mYEy5HWGShRZoT/pIGXaXjDEqg0tIIKrJJ/MyUPhRYKdH+Kv0yzjg8w2luMY8JJk7TvKPLUbrpCJMxVkHMnkAGDAaIQHRrKAoz5PsehSFMN7NhJpPtzg31zbOtyOWuTcsn1w7JcmKi0Kc4LJDlacnWEUCtnXgqwzpKakBN8sNf/JzwHscwSKNMY0tBA/5sosYL/9Dw/q93VulIJZedROCQIyDkS2e+Jv3ciZKKFAZ58lygry4HcFaq2pb5BSqXO8YCabxccGiB2ptFsS4ziCjUdUo0uEBvgthGK7BCKoQ+eR78jR2ySy5veEFEXmBn341YByKOoKqBf9AcgxpsiUspyNRtyyKsuMvuJvziG+U5XLYSMsLLzreivRgVgGPpr8okVcuVZpDWaKdXLqYMxVlpWVNkOMONsMqx4R6jlArjKCJHCnIsm4StJzaMA9T4MFh4HvycKg+lsqyDLf0SkVMkkUkRFbWn5ei6/pic++HnlKf7MisIV1oB0jzhoAkpIlsIGsjPplTb5+5Nn3DNykN+0pMPJhGo0ggI+dq5vwj69nzCsiMKg0FKpWKKwiKDFzcilFvBK3UoRpY7cO/cZcgZLVATv+up5hGRorgEj8CSqnkDEmWBtT5s1yHpp8gSrqJXM0gorJdw2S5/VWpAAVxNzbliec1ZM/7VHypPKsgcVdaoMn9cJ7SvXT6OJdHtVr3pNFd2zZ5AObPWZR1eFWFBpKRkTYkKu66qDZvIcWsp9gMKS3lmiDhQAIQLeARdaygDxuRgIxKNMli+cEcgUnV8HqUO3dSkakcHZMqMtUWt6tFGU8XWqwI1kaCi1V9op8b5114vjr7k21X6niWXnUTgkCMg5MYLv5nb8tbXXC+mKBqkFP4MsbTFpo1yB1FAbYSGVCmkXJNWHiIaOHEdyF4VX5o5sABgdKGhZowXkZ1cwLyAKQCOXcMblNCDYxAFVQHlExQ4GAwU+HKbhkRNGtehl9iq30F9mTpsZT3WZJO67KGW+oCSkdZW1Q3SHH0lasUgrQHaaF3rfcIy1U3A/ku17/OEGVjsgk5ogMFkFvkUY/WD+IOpYWEMbR6ysAi2jq2Ek6hIUVgiGz8fscqqnPD2FaSqqJSPmISH/R/Vc8bZPmrmUUBDxQ5qPOHGy8WsT993yE968sEkAlUaASH7vvihwZeee9xzI4rjIUp5JQZpx8bLjGWvNk4dE6SN6JJRcTNqZnhxMyxjGsoieSnweEsUBgFZoUeWk1HHDXy1nDaSlgADngNM7RtR1TKfnGlptomlrKnQdqxKGfh9A7wMPRqsTMY9uixQCe7Vm0VzqYPLUcBbZLZqA7gs6M2gbTpARz2hDKyK3SJjwUL9/FkbOtb4V7V1h4GgOEa5KUMuuNdwkZFF3sjlySGCUUEFs8esSipKGWpSN8+RmVFVaUXJwOo9EFOThnWmjZVPRCIOqBAfT7Unf22mqPtYb5W+Z8llJxE45Ahw3rn36Y9Lz91BNvVRyglJBkUSjkMyLKkmiUppzzKzYzRA40h40XVtUWZUtm1FFEqfJIGK57DAEZWwqeUpnjMkTlnjQTecQM85RqYH/ID4B+qf2lWbwRzZtc1ZOrjXNtdXY3Vc7ngEoOhssrIsUq7dVjTlcB33kGM39R+spD5a8GE0in6K3mZVqv2NmIsQA5WBc5ZsWC5SspIhb7aSz+NiWR6bDODfiNu+i7zqceyYLGTagfZyZLAdlk8tB6cCrI3c6sjAmXKJFiVQDw3TKhnYLY98Ov63dac9vHTqA55cQRKByY8AQ1T+lW/8pDi05jNu3E1Zrg+niHx0CVoUWb5iC0TgGyP5QgYFhTLYQ1UIKvFPh5sUzIaWKosMi9hzlyKDi3Es0VnUPqLwGkeY/zycHA6HSEEx/lvufhxxDM362EePZBgUqhqgTSBGiOeb+BstFU6x9cbqWA/XO8xQnNlqfecKaVqMJVYpKt6m5KX2EdS4mhXLaGkBrTFSQRnEL+N4pVCwp6SXSlEpnyMPEzF8HX2LYrue9uRdmrHwguvF7FVJPXry8SE54zSIgILQXY8s3vHmt3/f5G0iLw+JSdQgBVHKpVjkVBk5Bkhj005ZTJkGF/U67lt7nAb3llzCYY+AmiCHQdpMwHpyqJwDeG/BTMiGr25RZLtkCZv8QoEyKTB4AorzPlluIwViJgXee8OaucvniLaLdhz220lOkERgGkag/BrlN13zQG7roxfNsHNEpRwR6sYhmh2IIk6S1GagFXtqJ9507vGSuTrbqqfheFTdJY2g/JnyUuVdlKVKNRPHdK+axhv0TIXYqyiSAEgXc2oJVdtE2/uaadbxV9ws5l7yT1UXmOSCkwhMUATKIC39/1qw9fkfvDXD2UQp2qNYHUFEhJ1/vZGDDSIbZQ9eYqMdGNS2YYeNCbqm5DBVFAG9ezBs/2U2DkfUqHFDin7Jm4ym5MV7ApFiibgeUYBSWkiUqaPBKE15e2F/2+IvzRbiTG3BXkWBSS41icAERWBEUbK05b6VQ9t+eE+99RbZaFiwMkqgCEtVB27Z0GKCiBFeNF3mwG7/gWQpJ+hik8NMswjw3gL2Jky7udk8NDRAzbypVFg0vHtTS+c9B0e3+gOgUzQUeNRvzaejTrpgmahb+eQ0u+vkcpIITGoE9tk58ru+cs/u7odXznB88tD5V0KdEA7bOaWRgbZqKN9xUwO7ziYgPalDNo1OxkCrM2NzWWXzYjwXw63n5avmyV0zS7hEjf9o0wKvhvoKIeWdOdR+4oWfF61f/P40utvkUpIITEkE9gFpKJ3tevWGpzPBi0vtQjelmbMMdxMIGGk+8ohLHXWIJKuekoGcmpPieTAsEHClwbWpfB6wk1HJ3S4jufoLk0h0m6TjkO82Um+xiRrmLPv3hqNvvWJq7ik5axKB6RWBMTlYDNQvf+Uea+jVy2uplzzqJ7JQ7gj0S1hJuzIyoBU3lgD19Brlw3Y1egLn4yvuOnwJUXNWD5b2LjQt+6Dd6Swa8M35NModdpoGoxrqi1to9oLl17uzv57Q7Q7bmCUHrrYI7LeVQ27/z8/3vPbA9zLpTeR6O0iIIW7Ltshj1TsZqvZt1bmmXkruCuT/Nx53potiFANkBL+32sKWXG85Asz0Uc0xCqTNOGsPSbTiR0XeN4T3IboXI2Hz7wWRJCEkDRQyJLLvD9rmf/TTovXScdt6JaOTROBIisAB++0gvF/a/JvVvbt+d4Ft7aZsKiYHojslixxIXMKySW8Mqc5BDcpjuHCMCFwC0kfGc8TysyaThmO82UQ0II0OfSVsFUubiqFLEcStnCwFwqNQpKi5/ZQ77bnnrhIiafs+Mh6K5C4mMgIHBGlzMtn/9Gn5nrVf7dvxuwusUg/VWzGlnSJZHmqOPuttJCA9kUNTDcfCymlYeRBt3Mbel40jjBMMSwBkKAStrpQlcprISTfHsdt2X+2xZ3xX1J3/p2q42+QakwhMRQQOGqTLYC0f9GjPax+kwbdPJX/XQsptOZ2iXDvFQZqFklgEqZLxUdEqXnmHSSY9FeM9wecEEGu9EMihcle4KneohRQEmCwiu7ZEqbZXKNP6Mtkzn6f6eS+KthvWTvDFJIdLInBERuD/AEslGHg95YvfAAAAAElFTkSuQmCC;" vertex="1" parent="1">
          <mxGeometry x="-80.99" y="74" width="154.71" height="60" as="geometry" />
        </mxCell>
        <mxCell id="Qg6AfpxPYXCViFBLp9j0-8" value="&lt;h1&gt;delian&lt;/h1&gt;" style="whiteSpace=wrap;html=1;shadow=0;dashed=0;fontSize=10;align=left;fillColor=#FFFFFF;strokeColor=#FFFFFF;fontColor=#4D4D4D;" vertex="1" parent="1">
          <mxGeometry x="-573" y="359" width="75" height="16.88" as="geometry" />
        </mxCell>
        <mxCell id="Qg6AfpxPYXCViFBLp9j0-10" value="&lt;h1&gt;sikelian&lt;/h1&gt;" style="whiteSpace=wrap;html=1;shadow=0;dashed=0;fontSize=10;align=left;fillColor=#FFFFFF;strokeColor=#FFFFFF;fontColor=#4D4D4D;" vertex="1" parent="1">
          <mxGeometry x="300" y="359" width="149" height="16.88" as="geometry" />
        </mxCell>
        <mxCell id="Qg6AfpxPYXCViFBLp9j0-11" value="&lt;h1&gt;peloponnesian&lt;/h1&gt;" style="whiteSpace=wrap;html=1;shadow=0;dashed=0;fontSize=10;align=left;fillColor=#FFFFFF;strokeColor=#FFFFFF;fontColor=#4D4D4D;" vertex="1" parent="1">
          <mxGeometry x="-78" y="359" width="75" height="16.88" as="geometry" />
        </mxCell>
        <mxCell id="Qg6AfpxPYXCViFBLp9j0-15" value="" style="shape=image;verticalLabelPosition=bottom;labelBackgroundColor=default;verticalAlign=top;aspect=fixed;imageAspect=0;image=data:image/png,iVBORw0KGgoAAAANSUhEUgAAAMgAAADICAMAAACahl6sAAAAdVBMVEX///8AAABjY2Obm5tnZ2eXl5fPz88zMzPLy8svLy/q6urf39+CgoKvr6/7+/v19fVtbW0RERGjo6MTExO9vb0LCws+Pj48PDxaWlp7e3tRUVHp6emLi4uqqqrCwsIbGxtMTEwiIiLW1ta2trZ0dHQoKCiQkJDHZ8QXAAAE9ElEQVR4nO2ca3uiMBBGVfCC2mq91FvVdt36/3/iMiQsARJumYD6vOcLBe2QozAJkLHXAwAAAAAAAAAAAAAAAAAAAAAAAAAAAAAAuFnc5v6gA/z5bcGoMV1u+52xXU65PDbr7jSI9YbH461bDeKNw+NPdFit/bvXAXc/Ohq2fxhEPinSgfOUq8XiL+3/0z7QheJ82cdpzhe1YGIdZsnzediwC5uwtI4SmM61WZjm5xbL6lC2CewsQuhU1ybySfjC2GJZnSmd7nYWIXSA/o949pL0wSOyuHmXWm3gEFnRt7N/5xSZXMO13aldkYnonOLTbhqm+TeLZRRDjBl27YrshciWsUv5kj13ydHFLDKWe+XoZSW+DLmq2gYLkiDfcq9sg9Feby5DlowKmUXk4HEvX+DoR2bi8qCsk+DOWodo1BOfIixZ60wmP2UHK7dIb3JYnv+/wNOPzObLYWn2YBdJ0V7P7liEox+xbUPrQR6hDRBh5PlEphMt1AZaWsVuVWTYL8QqNkSa8FIi67GWhxF5jyl6E4n4jtqRBEh/wQO55hX870h303hU8A8PKjL60B3ozyei93g+EYNHLZHzUNOOhphEZqPR6FggIjwytxSDWiL3H2XFmQgxMItoPWqK9PvbjbLiMP0WiKx1HrVFlNFVVyJaj9oiym0iZyLzIAg+ikXyW+uKKNGdiZRkLQ6RydHNyZ6mBZEwNd5K21GZTkUqtKMypgAXz/N2ryBClGSt/NbHEKnVIUKkiMYS6Ralw60Gg8HvK4g4y1rtiCTbIVIkUtoGC0widD1CGB7EPY9Io30/jkjlkPTGIMf2OUX0QMSSFxVJtq8yM3QzkxdGRhrMAHEqMsh80IaxHgsQ0QdxLHLOZ+sYik9Lq/hpkSQciQzk7Nw9h0jJOMv6W0mLJGvqtUjB9VB1OhaZeaOXEKF5Shs+kaM5azOLUEixJkS8Pk1yZBMpCMIskmwXIvRBnV9BpLehGVyvIFKlDdVoV4RGVWKNRPZDAVs/0p5IOmupuBBRx5dPLHL7VlefV+Q3XTTCKOJLxNrKT1MymbqcrEh4Qjo6tByTF0lNW3lmkc/X+EYCZ+eIY3JZa+MqaxWRvRWhIh+3ZzfPykSc9SNFZJOxyjgJpJK9LdRezx4VixnuSjUWWbzFxWItiohiMe19qaYiUbHY+NSuyEU0QFujqd6KUDmkReLNVylyEnO6du2KyGKxvu4rMT0WnaRF4s3x4wW1WKw9kSB1cKdpKKI+9iKRz6ERRpFvuVfdM6qGImqxWHt3UWSx2FH3roYisljs571VEVEsFmjrURuKiER4jf5sUYSKxVb6mdRNRahY7C6O1YtvguaArpMLiIYYy8B5RKpw63P8NoCxMD9FVuQU5hmq9GMRoV99sH9qQT+VUFbdnBfR1Oo1FolKrK0vQKN7iZr5ohkcirzTKcJRsh11H8uSQO5ETtH+D/XarGUWjYc+BndaoT42uySykwJnYY6ZS5FrvmsmkYO5F0/4OkY9zS9LDf1mm2Rx3TLGlLU0HUHQr8WaqYT+cu1WZJy9mGyM+NmbjkSu98JqpppQxPhAzy6pz6VJgXvNMU6jmrXon+mtcYUkvf1o7MkV/t7tf2snJ2KCXme4Zm8HiDyaSNFxTK9nb2mryGFBtkKS8VdJAAAAAAAAAAAAAAAAAAAAAAAAAAAAAACABvwDcgVAK7z7gOsAAAAASUVORK5CYII=;" vertex="1" parent="1">
          <mxGeometry x="-587.5" y="585" width="91" height="91" as="geometry" />
        </mxCell>
        <mxCell id="Qg6AfpxPYXCViFBLp9j0-16" value="" style="shape=image;verticalLabelPosition=bottom;labelBackgroundColor=default;verticalAlign=top;aspect=fixed;imageAspect=0;image=data:image/png,iVBORw0KGgoAAAANSUhEUgAAAMgAAADICAMAAACahl6sAAAAdVBMVEX///8AAABjY2Obm5tnZ2eXl5fPz88zMzPLy8svLy/q6urf39+CgoKvr6/7+/v19fVtbW0RERGjo6MTExO9vb0LCws+Pj48PDxaWlp7e3tRUVHp6emLi4uqqqrCwsIbGxtMTEwiIiLW1ta2trZ0dHQoKCiQkJDHZ8QXAAAE9ElEQVR4nO2ca3uiMBBGVfCC2mq91FvVdt36/3/iMiQsARJumYD6vOcLBe2QozAJkLHXAwAAAAAAAAAAAAAAAAAAAAAAAAAAAAAAuFnc5v6gA/z5bcGoMV1u+52xXU65PDbr7jSI9YbH461bDeKNw+NPdFit/bvXAXc/Ohq2fxhEPinSgfOUq8XiL+3/0z7QheJ82cdpzhe1YGIdZsnzediwC5uwtI4SmM61WZjm5xbL6lC2CewsQuhU1ybySfjC2GJZnSmd7nYWIXSA/o949pL0wSOyuHmXWm3gEFnRt7N/5xSZXMO13aldkYnonOLTbhqm+TeLZRRDjBl27YrshciWsUv5kj13ydHFLDKWe+XoZSW+DLmq2gYLkiDfcq9sg9Feby5DlowKmUXk4HEvX+DoR2bi8qCsk+DOWodo1BOfIixZ60wmP2UHK7dIb3JYnv+/wNOPzObLYWn2YBdJ0V7P7liEox+xbUPrQR6hDRBh5PlEphMt1AZaWsVuVWTYL8QqNkSa8FIi67GWhxF5jyl6E4n4jtqRBEh/wQO55hX870h303hU8A8PKjL60B3ozyei93g+EYNHLZHzUNOOhphEZqPR6FggIjwytxSDWiL3H2XFmQgxMItoPWqK9PvbjbLiMP0WiKx1HrVFlNFVVyJaj9oiym0iZyLzIAg+ikXyW+uKKNGdiZRkLQ6RydHNyZ6mBZEwNd5K21GZTkUqtKMypgAXz/N2ryBClGSt/NbHEKnVIUKkiMYS6Ralw60Gg8HvK4g4y1rtiCTbIVIkUtoGC0widD1CGB7EPY9Io30/jkjlkPTGIMf2OUX0QMSSFxVJtq8yM3QzkxdGRhrMAHEqMsh80IaxHgsQ0QdxLHLOZ+sYik9Lq/hpkSQciQzk7Nw9h0jJOMv6W0mLJGvqtUjB9VB1OhaZeaOXEKF5Shs+kaM5azOLUEixJkS8Pk1yZBMpCMIskmwXIvRBnV9BpLehGVyvIFKlDdVoV4RGVWKNRPZDAVs/0p5IOmupuBBRx5dPLHL7VlefV+Q3XTTCKOJLxNrKT1MymbqcrEh4Qjo6tByTF0lNW3lmkc/X+EYCZ+eIY3JZa+MqaxWRvRWhIh+3ZzfPykSc9SNFZJOxyjgJpJK9LdRezx4VixnuSjUWWbzFxWItiohiMe19qaYiUbHY+NSuyEU0QFujqd6KUDmkReLNVylyEnO6du2KyGKxvu4rMT0WnaRF4s3x4wW1WKw9kSB1cKdpKKI+9iKRz6ERRpFvuVfdM6qGImqxWHt3UWSx2FH3roYisljs571VEVEsFmjrURuKiER4jf5sUYSKxVb6mdRNRahY7C6O1YtvguaArpMLiIYYy8B5RKpw63P8NoCxMD9FVuQU5hmq9GMRoV99sH9qQT+VUFbdnBfR1Oo1FolKrK0vQKN7iZr5ohkcirzTKcJRsh11H8uSQO5ETtH+D/XarGUWjYc+BndaoT42uySykwJnYY6ZS5FrvmsmkYO5F0/4OkY9zS9LDf1mm2Rx3TLGlLU0HUHQr8WaqYT+cu1WZJy9mGyM+NmbjkSu98JqpppQxPhAzy6pz6VJgXvNMU6jmrXon+mtcYUkvf1o7MkV/t7tf2snJ2KCXme4Zm8HiDyaSNFxTK9nb2mryGFBtkKS8VdJAAAAAAAAAAAAAAAAAAAAAAAAAAAAAACABvwDcgVAK7z7gOsAAAAASUVORK5CYII=;" vertex="1" parent="1">
          <mxGeometry x="-589" y="769" width="91" height="91" as="geometry" />
        </mxCell>
        <mxCell id="Qg6AfpxPYXCViFBLp9j0-17" value="" style="shape=image;verticalLabelPosition=bottom;labelBackgroundColor=default;verticalAlign=top;aspect=fixed;imageAspect=0;image=https://encrypted-tbn0.gstatic.com/images?q=tbn:ANd9GcQvTasi86MHWicFxzDo5Ko1GgsOMeNs_jUMiw&amp;usqp=CAU;" vertex="1" parent="1">
          <mxGeometry x="-589" y="404" width="94" height="94" as="geometry" />
        </mxCell>
        <mxCell id="Qg6AfpxPYXCViFBLp9j0-28" value="" style="html=1;shadow=0;dashed=0;shape=mxgraph.bootstrap.rrect;rSize=5;strokeColor=#DFDFDF;html=1;whiteSpace=wrap;fillColor=#FFFFFF;fontColor=#000000;" vertex="1" parent="1">
          <mxGeometry x="-478.5" y="424" width="200" height="150" as="geometry" />
        </mxCell>
        <mxCell id="Qg6AfpxPYXCViFBLp9j0-29" value="athenai" style="html=1;shadow=0;dashed=0;shape=mxgraph.bootstrap.topButton;rSize=5;strokeColor=none;fillColor=#0085FC;fontColor=#ffffff;perimeter=none;whiteSpace=wrap;resizeWidth=1;align=left;spacing=10;" vertex="1" parent="Qg6AfpxPYXCViFBLp9j0-28">
          <mxGeometry width="200" height="30" relative="1" as="geometry" />
        </mxCell>
        <mxCell id="Qg6AfpxPYXCViFBLp9j0-30" value="ip: 192.168.1.121" style="strokeColor=inherit;fillColor=inherit;gradientColor=inherit;fontColor=inherit;html=1;shadow=0;dashed=0;perimeter=none;whiteSpace=wrap;resizeWidth=1;align=left;spacing=10;" vertex="1" parent="Qg6AfpxPYXCViFBLp9j0-28">
          <mxGeometry width="200" height="30" relative="1" as="geometry">
            <mxPoint y="30" as="offset" />
          </mxGeometry>
        </mxCell>
        <mxCell id="Qg6AfpxPYXCViFBLp9j0-31" value="type: Raspberry PI 5B" style="strokeColor=inherit;fillColor=inherit;gradientColor=inherit;fontColor=inherit;html=1;shadow=0;dashed=0;perimeter=none;whiteSpace=wrap;resizeWidth=1;align=left;spacing=10;" vertex="1" parent="Qg6AfpxPYXCViFBLp9j0-28">
          <mxGeometry width="200" height="30" relative="1" as="geometry">
            <mxPoint y="60" as="offset" />
          </mxGeometry>
        </mxCell>
        <mxCell id="Qg6AfpxPYXCViFBLp9j0-32" value="memory: 8gb cpu: 4 cores" style="strokeColor=inherit;fillColor=inherit;gradientColor=inherit;fontColor=inherit;html=1;shadow=0;dashed=0;perimeter=none;whiteSpace=wrap;resizeWidth=1;align=left;spacing=10;" vertex="1" parent="Qg6AfpxPYXCViFBLp9j0-28">
          <mxGeometry width="200" height="30" relative="1" as="geometry">
            <mxPoint y="90" as="offset" />
          </mxGeometry>
        </mxCell>
        <mxCell id="Qg6AfpxPYXCViFBLp9j0-33" value="storage: 128GB" style="strokeColor=inherit;fillColor=inherit;gradientColor=inherit;fontColor=inherit;html=1;shadow=0;dashed=0;shape=mxgraph.bootstrap.bottomButton;rSize=5;perimeter=none;whiteSpace=wrap;resizeWidth=1;resizeHeight=0;align=left;spacing=10;" vertex="1" parent="Qg6AfpxPYXCViFBLp9j0-28">
          <mxGeometry y="1" width="200" height="30" relative="1" as="geometry">
            <mxPoint y="-30" as="offset" />
          </mxGeometry>
        </mxCell>
        <mxCell id="Qg6AfpxPYXCViFBLp9j0-37" value="" style="html=1;shadow=0;dashed=0;shape=mxgraph.bootstrap.rrect;rSize=5;strokeColor=#DFDFDF;html=1;whiteSpace=wrap;fillColor=#FFFFFF;fontColor=#000000;" vertex="1" parent="1">
          <mxGeometry x="-484.5" y="611" width="200" height="150" as="geometry" />
        </mxCell>
        <mxCell id="Qg6AfpxPYXCViFBLp9j0-38" value="argos" style="html=1;shadow=0;dashed=0;shape=mxgraph.bootstrap.topButton;rSize=5;strokeColor=none;fillColor=#0085FC;fontColor=#ffffff;perimeter=none;whiteSpace=wrap;resizeWidth=1;align=left;spacing=10;" vertex="1" parent="Qg6AfpxPYXCViFBLp9j0-37">
          <mxGeometry width="200" height="30" relative="1" as="geometry" />
        </mxCell>
        <mxCell id="Qg6AfpxPYXCViFBLp9j0-39" value="ip: 192.168.1.122" style="strokeColor=inherit;fillColor=inherit;gradientColor=inherit;fontColor=inherit;html=1;shadow=0;dashed=0;perimeter=none;whiteSpace=wrap;resizeWidth=1;align=left;spacing=10;" vertex="1" parent="Qg6AfpxPYXCViFBLp9j0-37">
          <mxGeometry width="200" height="30" relative="1" as="geometry">
            <mxPoint y="30" as="offset" />
          </mxGeometry>
        </mxCell>
        <mxCell id="Qg6AfpxPYXCViFBLp9j0-40" value="type: Raspberry PI 4B" style="strokeColor=inherit;fillColor=inherit;gradientColor=inherit;fontColor=inherit;html=1;shadow=0;dashed=0;perimeter=none;whiteSpace=wrap;resizeWidth=1;align=left;spacing=10;" vertex="1" parent="Qg6AfpxPYXCViFBLp9j0-37">
          <mxGeometry width="200" height="30" relative="1" as="geometry">
            <mxPoint y="60" as="offset" />
          </mxGeometry>
        </mxCell>
        <mxCell id="Qg6AfpxPYXCViFBLp9j0-41" value="memory: 4gb cpu: 4 cores" style="strokeColor=inherit;fillColor=inherit;gradientColor=inherit;fontColor=inherit;html=1;shadow=0;dashed=0;perimeter=none;whiteSpace=wrap;resizeWidth=1;align=left;spacing=10;" vertex="1" parent="Qg6AfpxPYXCViFBLp9j0-37">
          <mxGeometry width="200" height="30" relative="1" as="geometry">
            <mxPoint y="90" as="offset" />
          </mxGeometry>
        </mxCell>
        <mxCell id="Qg6AfpxPYXCViFBLp9j0-42" value="storage: 64GB" style="strokeColor=inherit;fillColor=inherit;gradientColor=inherit;fontColor=inherit;html=1;shadow=0;dashed=0;shape=mxgraph.bootstrap.bottomButton;rSize=5;perimeter=none;whiteSpace=wrap;resizeWidth=1;resizeHeight=0;align=left;spacing=10;" vertex="1" parent="Qg6AfpxPYXCViFBLp9j0-37">
          <mxGeometry y="1" width="200" height="30" relative="1" as="geometry">
            <mxPoint y="-30" as="offset" />
          </mxGeometry>
        </mxCell>
        <mxCell id="Qg6AfpxPYXCViFBLp9j0-43" value="" style="html=1;shadow=0;dashed=0;shape=mxgraph.bootstrap.rrect;rSize=5;strokeColor=#DFDFDF;html=1;whiteSpace=wrap;fillColor=#FFFFFF;fontColor=#000000;" vertex="1" parent="1">
          <mxGeometry x="-487.5" y="794" width="200" height="150" as="geometry" />
        </mxCell>
        <mxCell id="Qg6AfpxPYXCViFBLp9j0-44" value="samos" style="html=1;shadow=0;dashed=0;shape=mxgraph.bootstrap.topButton;rSize=5;strokeColor=none;fillColor=#0085FC;fontColor=#ffffff;perimeter=none;whiteSpace=wrap;resizeWidth=1;align=left;spacing=10;" vertex="1" parent="Qg6AfpxPYXCViFBLp9j0-43">
          <mxGeometry width="200" height="30" relative="1" as="geometry" />
        </mxCell>
        <mxCell id="Qg6AfpxPYXCViFBLp9j0-45" value="ip: 192.168.1.123" style="strokeColor=inherit;fillColor=inherit;gradientColor=inherit;fontColor=inherit;html=1;shadow=0;dashed=0;perimeter=none;whiteSpace=wrap;resizeWidth=1;align=left;spacing=10;" vertex="1" parent="Qg6AfpxPYXCViFBLp9j0-43">
          <mxGeometry width="200" height="30" relative="1" as="geometry">
            <mxPoint y="30" as="offset" />
          </mxGeometry>
        </mxCell>
        <mxCell id="Qg6AfpxPYXCViFBLp9j0-46" value="type: Raspberry PI 3B" style="strokeColor=inherit;fillColor=inherit;gradientColor=inherit;fontColor=inherit;html=1;shadow=0;dashed=0;perimeter=none;whiteSpace=wrap;resizeWidth=1;align=left;spacing=10;" vertex="1" parent="Qg6AfpxPYXCViFBLp9j0-43">
          <mxGeometry width="200" height="30" relative="1" as="geometry">
            <mxPoint y="60" as="offset" />
          </mxGeometry>
        </mxCell>
        <mxCell id="Qg6AfpxPYXCViFBLp9j0-47" value="memory: 1gb cpu: 4 cores" style="strokeColor=inherit;fillColor=inherit;gradientColor=inherit;fontColor=inherit;html=1;shadow=0;dashed=0;perimeter=none;whiteSpace=wrap;resizeWidth=1;align=left;spacing=10;" vertex="1" parent="Qg6AfpxPYXCViFBLp9j0-43">
          <mxGeometry width="200" height="30" relative="1" as="geometry">
            <mxPoint y="90" as="offset" />
          </mxGeometry>
        </mxCell>
        <mxCell id="Qg6AfpxPYXCViFBLp9j0-48" value="storage: 32GB" style="strokeColor=inherit;fillColor=inherit;gradientColor=inherit;fontColor=inherit;html=1;shadow=0;dashed=0;shape=mxgraph.bootstrap.bottomButton;rSize=5;perimeter=none;whiteSpace=wrap;resizeWidth=1;resizeHeight=0;align=left;spacing=10;" vertex="1" parent="Qg6AfpxPYXCViFBLp9j0-43">
          <mxGeometry y="1" width="200" height="30" relative="1" as="geometry">
            <mxPoint y="-30" as="offset" />
          </mxGeometry>
        </mxCell>
        <mxCell id="Qg6AfpxPYXCViFBLp9j0-52" value="" style="shape=image;verticalLabelPosition=bottom;labelBackgroundColor=default;verticalAlign=top;aspect=fixed;imageAspect=0;image=data:image/png,iVBORw0KGgoAAAANSUhEUgAAAMgAAADICAMAAACahl6sAAAAdVBMVEX///8AAABjY2Obm5tnZ2eXl5fPz88zMzPLy8svLy/q6urf39+CgoKvr6/7+/v19fVtbW0RERGjo6MTExO9vb0LCws+Pj48PDxaWlp7e3tRUVHp6emLi4uqqqrCwsIbGxtMTEwiIiLW1ta2trZ0dHQoKCiQkJDHZ8QXAAAE9ElEQVR4nO2ca3uiMBBGVfCC2mq91FvVdt36/3/iMiQsARJumYD6vOcLBe2QozAJkLHXAwAAAAAAAAAAAAAAAAAAAAAAAAAAAAAAuFnc5v6gA/z5bcGoMV1u+52xXU65PDbr7jSI9YbH461bDeKNw+NPdFit/bvXAXc/Ohq2fxhEPinSgfOUq8XiL+3/0z7QheJ82cdpzhe1YGIdZsnzediwC5uwtI4SmM61WZjm5xbL6lC2CewsQuhU1ybySfjC2GJZnSmd7nYWIXSA/o949pL0wSOyuHmXWm3gEFnRt7N/5xSZXMO13aldkYnonOLTbhqm+TeLZRRDjBl27YrshciWsUv5kj13ydHFLDKWe+XoZSW+DLmq2gYLkiDfcq9sg9Feby5DlowKmUXk4HEvX+DoR2bi8qCsk+DOWodo1BOfIixZ60wmP2UHK7dIb3JYnv+/wNOPzObLYWn2YBdJ0V7P7liEox+xbUPrQR6hDRBh5PlEphMt1AZaWsVuVWTYL8QqNkSa8FIi67GWhxF5jyl6E4n4jtqRBEh/wQO55hX870h303hU8A8PKjL60B3ozyei93g+EYNHLZHzUNOOhphEZqPR6FggIjwytxSDWiL3H2XFmQgxMItoPWqK9PvbjbLiMP0WiKx1HrVFlNFVVyJaj9oiym0iZyLzIAg+ikXyW+uKKNGdiZRkLQ6RydHNyZ6mBZEwNd5K21GZTkUqtKMypgAXz/N2ryBClGSt/NbHEKnVIUKkiMYS6Ralw60Gg8HvK4g4y1rtiCTbIVIkUtoGC0widD1CGB7EPY9Io30/jkjlkPTGIMf2OUX0QMSSFxVJtq8yM3QzkxdGRhrMAHEqMsh80IaxHgsQ0QdxLHLOZ+sYik9Lq/hpkSQciQzk7Nw9h0jJOMv6W0mLJGvqtUjB9VB1OhaZeaOXEKF5Shs+kaM5azOLUEixJkS8Pk1yZBMpCMIskmwXIvRBnV9BpLehGVyvIFKlDdVoV4RGVWKNRPZDAVs/0p5IOmupuBBRx5dPLHL7VlefV+Q3XTTCKOJLxNrKT1MymbqcrEh4Qjo6tByTF0lNW3lmkc/X+EYCZ+eIY3JZa+MqaxWRvRWhIh+3ZzfPykSc9SNFZJOxyjgJpJK9LdRezx4VixnuSjUWWbzFxWItiohiMe19qaYiUbHY+NSuyEU0QFujqd6KUDmkReLNVylyEnO6du2KyGKxvu4rMT0WnaRF4s3x4wW1WKw9kSB1cKdpKKI+9iKRz6ERRpFvuVfdM6qGImqxWHt3UWSx2FH3roYisljs571VEVEsFmjrURuKiER4jf5sUYSKxVb6mdRNRahY7C6O1YtvguaArpMLiIYYy8B5RKpw63P8NoCxMD9FVuQU5hmq9GMRoV99sH9qQT+VUFbdnBfR1Oo1FolKrK0vQKN7iZr5ohkcirzTKcJRsh11H8uSQO5ETtH+D/XarGUWjYc+BndaoT42uySykwJnYY6ZS5FrvmsmkYO5F0/4OkY9zS9LDf1mm2Rx3TLGlLU0HUHQr8WaqYT+cu1WZJy9mGyM+NmbjkSu98JqpppQxPhAzy6pz6VJgXvNMU6jmrXon+mtcYUkvf1o7MkV/t7tf2snJ2KCXme4Zm8HiDyaSNFxTK9nb2mryGFBtkKS8VdJAAAAAAAAAAAAAAAAAAAAAAAAAAAAAACABvwDcgVAK7z7gOsAAAAASUVORK5CYII=;" vertex="1" parent="1">
          <mxGeometry x="-155.39" y="583" width="91" height="91" as="geometry" />
        </mxCell>
        <mxCell id="Qg6AfpxPYXCViFBLp9j0-53" value="" style="shape=image;verticalLabelPosition=bottom;labelBackgroundColor=default;verticalAlign=top;aspect=fixed;imageAspect=0;image=data:image/png,iVBORw0KGgoAAAANSUhEUgAAAMgAAADICAMAAACahl6sAAAAdVBMVEX///8AAABjY2Obm5tnZ2eXl5fPz88zMzPLy8svLy/q6urf39+CgoKvr6/7+/v19fVtbW0RERGjo6MTExO9vb0LCws+Pj48PDxaWlp7e3tRUVHp6emLi4uqqqrCwsIbGxtMTEwiIiLW1ta2trZ0dHQoKCiQkJDHZ8QXAAAE9ElEQVR4nO2ca3uiMBBGVfCC2mq91FvVdt36/3/iMiQsARJumYD6vOcLBe2QozAJkLHXAwAAAAAAAAAAAAAAAAAAAAAAAAAAAAAAuFnc5v6gA/z5bcGoMV1u+52xXU65PDbr7jSI9YbH461bDeKNw+NPdFit/bvXAXc/Ohq2fxhEPinSgfOUq8XiL+3/0z7QheJ82cdpzhe1YGIdZsnzediwC5uwtI4SmM61WZjm5xbL6lC2CewsQuhU1ybySfjC2GJZnSmd7nYWIXSA/o949pL0wSOyuHmXWm3gEFnRt7N/5xSZXMO13aldkYnonOLTbhqm+TeLZRRDjBl27YrshciWsUv5kj13ydHFLDKWe+XoZSW+DLmq2gYLkiDfcq9sg9Feby5DlowKmUXk4HEvX+DoR2bi8qCsk+DOWodo1BOfIixZ60wmP2UHK7dIb3JYnv+/wNOPzObLYWn2YBdJ0V7P7liEox+xbUPrQR6hDRBh5PlEphMt1AZaWsVuVWTYL8QqNkSa8FIi67GWhxF5jyl6E4n4jtqRBEh/wQO55hX870h303hU8A8PKjL60B3ozyei93g+EYNHLZHzUNOOhphEZqPR6FggIjwytxSDWiL3H2XFmQgxMItoPWqK9PvbjbLiMP0WiKx1HrVFlNFVVyJaj9oiym0iZyLzIAg+ikXyW+uKKNGdiZRkLQ6RydHNyZ6mBZEwNd5K21GZTkUqtKMypgAXz/N2ryBClGSt/NbHEKnVIUKkiMYS6Ralw60Gg8HvK4g4y1rtiCTbIVIkUtoGC0widD1CGB7EPY9Io30/jkjlkPTGIMf2OUX0QMSSFxVJtq8yM3QzkxdGRhrMAHEqMsh80IaxHgsQ0QdxLHLOZ+sYik9Lq/hpkSQciQzk7Nw9h0jJOMv6W0mLJGvqtUjB9VB1OhaZeaOXEKF5Shs+kaM5azOLUEixJkS8Pk1yZBMpCMIskmwXIvRBnV9BpLehGVyvIFKlDdVoV4RGVWKNRPZDAVs/0p5IOmupuBBRx5dPLHL7VlefV+Q3XTTCKOJLxNrKT1MymbqcrEh4Qjo6tByTF0lNW3lmkc/X+EYCZ+eIY3JZa+MqaxWRvRWhIh+3ZzfPykSc9SNFZJOxyjgJpJK9LdRezx4VixnuSjUWWbzFxWItiohiMe19qaYiUbHY+NSuyEU0QFujqd6KUDmkReLNVylyEnO6du2KyGKxvu4rMT0WnaRF4s3x4wW1WKw9kSB1cKdpKKI+9iKRz6ERRpFvuVfdM6qGImqxWHt3UWSx2FH3roYisljs571VEVEsFmjrURuKiER4jf5sUYSKxVb6mdRNRahY7C6O1YtvguaArpMLiIYYy8B5RKpw63P8NoCxMD9FVuQU5hmq9GMRoV99sH9qQT+VUFbdnBfR1Oo1FolKrK0vQKN7iZr5ohkcirzTKcJRsh11H8uSQO5ETtH+D/XarGUWjYc+BndaoT42uySykwJnYY6ZS5FrvmsmkYO5F0/4OkY9zS9LDf1mm2Rx3TLGlLU0HUHQr8WaqYT+cu1WZJy9mGyM+NmbjkSu98JqpppQxPhAzy6pz6VJgXvNMU6jmrXon+mtcYUkvf1o7MkV/t7tf2snJ2KCXme4Zm8HiDyaSNFxTK9nb2mryGFBtkKS8VdJAAAAAAAAAAAAAAAAAAAAAAAAAAAAAACABvwDcgVAK7z7gOsAAAAASUVORK5CYII=;" vertex="1" parent="1">
          <mxGeometry x="-156.89" y="767" width="91" height="91" as="geometry" />
        </mxCell>
        <mxCell id="Qg6AfpxPYXCViFBLp9j0-54" value="" style="shape=image;verticalLabelPosition=bottom;labelBackgroundColor=default;verticalAlign=top;aspect=fixed;imageAspect=0;image=https://encrypted-tbn0.gstatic.com/images?q=tbn:ANd9GcQvTasi86MHWicFxzDo5Ko1GgsOMeNs_jUMiw&amp;usqp=CAU;" vertex="1" parent="1">
          <mxGeometry x="-156.89" y="402" width="94" height="94" as="geometry" />
        </mxCell>
        <mxCell id="Qg6AfpxPYXCViFBLp9j0-55" value="" style="html=1;shadow=0;dashed=0;shape=mxgraph.bootstrap.rrect;rSize=5;strokeColor=#DFDFDF;html=1;whiteSpace=wrap;fillColor=#FFFFFF;fontColor=#000000;" vertex="1" parent="1">
          <mxGeometry x="-46.389999999999986" y="422" width="200" height="150" as="geometry" />
        </mxCell>
        <mxCell id="Qg6AfpxPYXCViFBLp9j0-56" value="sparta" style="html=1;shadow=0;dashed=0;shape=mxgraph.bootstrap.topButton;rSize=5;strokeColor=none;fillColor=#0085FC;fontColor=#ffffff;perimeter=none;whiteSpace=wrap;resizeWidth=1;align=left;spacing=10;" vertex="1" parent="Qg6AfpxPYXCViFBLp9j0-55">
          <mxGeometry width="200" height="30" relative="1" as="geometry" />
        </mxCell>
        <mxCell id="Qg6AfpxPYXCViFBLp9j0-57" value="ip: 192.168.2.121" style="strokeColor=inherit;fillColor=inherit;gradientColor=inherit;fontColor=inherit;html=1;shadow=0;dashed=0;perimeter=none;whiteSpace=wrap;resizeWidth=1;align=left;spacing=10;" vertex="1" parent="Qg6AfpxPYXCViFBLp9j0-55">
          <mxGeometry width="200" height="30" relative="1" as="geometry">
            <mxPoint y="30" as="offset" />
          </mxGeometry>
        </mxCell>
        <mxCell id="Qg6AfpxPYXCViFBLp9j0-58" value="type: Raspberry PI 4B" style="strokeColor=inherit;fillColor=inherit;gradientColor=inherit;fontColor=inherit;html=1;shadow=0;dashed=0;perimeter=none;whiteSpace=wrap;resizeWidth=1;align=left;spacing=10;" vertex="1" parent="Qg6AfpxPYXCViFBLp9j0-55">
          <mxGeometry width="200" height="30" relative="1" as="geometry">
            <mxPoint y="60" as="offset" />
          </mxGeometry>
        </mxCell>
        <mxCell id="Qg6AfpxPYXCViFBLp9j0-59" value="memory: 8gb cpu: 4 cores" style="strokeColor=inherit;fillColor=inherit;gradientColor=inherit;fontColor=inherit;html=1;shadow=0;dashed=0;perimeter=none;whiteSpace=wrap;resizeWidth=1;align=left;spacing=10;" vertex="1" parent="Qg6AfpxPYXCViFBLp9j0-55">
          <mxGeometry width="200" height="30" relative="1" as="geometry">
            <mxPoint y="90" as="offset" />
          </mxGeometry>
        </mxCell>
        <mxCell id="Qg6AfpxPYXCViFBLp9j0-60" value="storage: 128GB" style="strokeColor=inherit;fillColor=inherit;gradientColor=inherit;fontColor=inherit;html=1;shadow=0;dashed=0;shape=mxgraph.bootstrap.bottomButton;rSize=5;perimeter=none;whiteSpace=wrap;resizeWidth=1;resizeHeight=0;align=left;spacing=10;" vertex="1" parent="Qg6AfpxPYXCViFBLp9j0-55">
          <mxGeometry y="1" width="200" height="30" relative="1" as="geometry">
            <mxPoint y="-30" as="offset" />
          </mxGeometry>
        </mxCell>
        <mxCell id="Qg6AfpxPYXCViFBLp9j0-61" value="" style="html=1;shadow=0;dashed=0;shape=mxgraph.bootstrap.rrect;rSize=5;strokeColor=#DFDFDF;html=1;whiteSpace=wrap;fillColor=#FFFFFF;fontColor=#000000;" vertex="1" parent="1">
          <mxGeometry x="-52.389999999999986" y="609" width="200" height="150" as="geometry" />
        </mxCell>
        <mxCell id="Qg6AfpxPYXCViFBLp9j0-62" value="thebai" style="html=1;shadow=0;dashed=0;shape=mxgraph.bootstrap.topButton;rSize=5;strokeColor=none;fillColor=#0085FC;fontColor=#ffffff;perimeter=none;whiteSpace=wrap;resizeWidth=1;align=left;spacing=10;" vertex="1" parent="Qg6AfpxPYXCViFBLp9j0-61">
          <mxGeometry width="200" height="30" relative="1" as="geometry" />
        </mxCell>
        <mxCell id="Qg6AfpxPYXCViFBLp9j0-63" value="ip: 192.168.2.122" style="strokeColor=inherit;fillColor=inherit;gradientColor=inherit;fontColor=inherit;html=1;shadow=0;dashed=0;perimeter=none;whiteSpace=wrap;resizeWidth=1;align=left;spacing=10;" vertex="1" parent="Qg6AfpxPYXCViFBLp9j0-61">
          <mxGeometry width="200" height="30" relative="1" as="geometry">
            <mxPoint y="30" as="offset" />
          </mxGeometry>
        </mxCell>
        <mxCell id="Qg6AfpxPYXCViFBLp9j0-64" value="type: Raspberry PI 4B" style="strokeColor=inherit;fillColor=inherit;gradientColor=inherit;fontColor=inherit;html=1;shadow=0;dashed=0;perimeter=none;whiteSpace=wrap;resizeWidth=1;align=left;spacing=10;" vertex="1" parent="Qg6AfpxPYXCViFBLp9j0-61">
          <mxGeometry width="200" height="30" relative="1" as="geometry">
            <mxPoint y="60" as="offset" />
          </mxGeometry>
        </mxCell>
        <mxCell id="Qg6AfpxPYXCViFBLp9j0-65" value="memory: 4gb cpu: 4 cores" style="strokeColor=inherit;fillColor=inherit;gradientColor=inherit;fontColor=inherit;html=1;shadow=0;dashed=0;perimeter=none;whiteSpace=wrap;resizeWidth=1;align=left;spacing=10;" vertex="1" parent="Qg6AfpxPYXCViFBLp9j0-61">
          <mxGeometry width="200" height="30" relative="1" as="geometry">
            <mxPoint y="90" as="offset" />
          </mxGeometry>
        </mxCell>
        <mxCell id="Qg6AfpxPYXCViFBLp9j0-66" value="storage: 64GB" style="strokeColor=inherit;fillColor=inherit;gradientColor=inherit;fontColor=inherit;html=1;shadow=0;dashed=0;shape=mxgraph.bootstrap.bottomButton;rSize=5;perimeter=none;whiteSpace=wrap;resizeWidth=1;resizeHeight=0;align=left;spacing=10;" vertex="1" parent="Qg6AfpxPYXCViFBLp9j0-61">
          <mxGeometry y="1" width="200" height="30" relative="1" as="geometry">
            <mxPoint y="-30" as="offset" />
          </mxGeometry>
        </mxCell>
        <mxCell id="Qg6AfpxPYXCViFBLp9j0-67" value="" style="html=1;shadow=0;dashed=0;shape=mxgraph.bootstrap.rrect;rSize=5;strokeColor=#DFDFDF;html=1;whiteSpace=wrap;fillColor=#FFFFFF;fontColor=#000000;" vertex="1" parent="1">
          <mxGeometry x="-55.389999999999986" y="792" width="200" height="150" as="geometry" />
        </mxCell>
        <mxCell id="Qg6AfpxPYXCViFBLp9j0-68" value="korinth" style="html=1;shadow=0;dashed=0;shape=mxgraph.bootstrap.topButton;rSize=5;strokeColor=none;fillColor=#0085FC;fontColor=#ffffff;perimeter=none;whiteSpace=wrap;resizeWidth=1;align=left;spacing=10;" vertex="1" parent="Qg6AfpxPYXCViFBLp9j0-67">
          <mxGeometry width="200" height="30" relative="1" as="geometry" />
        </mxCell>
        <mxCell id="Qg6AfpxPYXCViFBLp9j0-69" value="ip: 192.168.2.123" style="strokeColor=inherit;fillColor=inherit;gradientColor=inherit;fontColor=inherit;html=1;shadow=0;dashed=0;perimeter=none;whiteSpace=wrap;resizeWidth=1;align=left;spacing=10;" vertex="1" parent="Qg6AfpxPYXCViFBLp9j0-67">
          <mxGeometry width="200" height="30" relative="1" as="geometry">
            <mxPoint y="30" as="offset" />
          </mxGeometry>
        </mxCell>
        <mxCell id="Qg6AfpxPYXCViFBLp9j0-70" value="type: Raspberry PI 4B" style="strokeColor=inherit;fillColor=inherit;gradientColor=inherit;fontColor=inherit;html=1;shadow=0;dashed=0;perimeter=none;whiteSpace=wrap;resizeWidth=1;align=left;spacing=10;" vertex="1" parent="Qg6AfpxPYXCViFBLp9j0-67">
          <mxGeometry width="200" height="30" relative="1" as="geometry">
            <mxPoint y="60" as="offset" />
          </mxGeometry>
        </mxCell>
        <mxCell id="Qg6AfpxPYXCViFBLp9j0-71" value="memory: 4gb cpu: 4 cores" style="strokeColor=inherit;fillColor=inherit;gradientColor=inherit;fontColor=inherit;html=1;shadow=0;dashed=0;perimeter=none;whiteSpace=wrap;resizeWidth=1;align=left;spacing=10;" vertex="1" parent="Qg6AfpxPYXCViFBLp9j0-67">
          <mxGeometry width="200" height="30" relative="1" as="geometry">
            <mxPoint y="90" as="offset" />
          </mxGeometry>
        </mxCell>
        <mxCell id="Qg6AfpxPYXCViFBLp9j0-72" value="storage: 64GB" style="strokeColor=inherit;fillColor=inherit;gradientColor=inherit;fontColor=inherit;html=1;shadow=0;dashed=0;shape=mxgraph.bootstrap.bottomButton;rSize=5;perimeter=none;whiteSpace=wrap;resizeWidth=1;resizeHeight=0;align=left;spacing=10;" vertex="1" parent="Qg6AfpxPYXCViFBLp9j0-67">
          <mxGeometry y="1" width="200" height="30" relative="1" as="geometry">
            <mxPoint y="-30" as="offset" />
          </mxGeometry>
        </mxCell>
        <mxCell id="Qg6AfpxPYXCViFBLp9j0-80" value="" style="shape=image;verticalLabelPosition=bottom;labelBackgroundColor=default;verticalAlign=top;aspect=fixed;imageAspect=0;image=data:image/png,iVBORw0KGgoAAAANSUhEUgAAAMgAAADICAMAAACahl6sAAAAkFBMVEX///8AAAD29vb5+fnw8PD8/PwGBgYXFxcJCQkVFRUSEhIaGhrJycmJiYkEBAQlJSUzMzOPj4/h4eEsLCzW1tY+Pj68vLxYWFiAgICxsbHR0dFubm7Dw8N5eXmdnZ3e3t5nZ2ekpKRaWlpERETp6elLS0uhoaFQUFCUlJQnJyc3NzdAQEBpaWkvLy+1tbV8fHxml8CiAAAMLElEQVR4nO1de3u6PAzdQJyKV2QK3vGyOee27//t3m3u53J6gbbQ4vs8O/8imNA2OUnTcHf3hz/84Q/l4M/SZPv4Nmi3+p1wfHperhaNumXShr9IHpv3PAabbF+3bOoI0mlLoMQ/DEf/D11m83aOFt/oH7KgbjGLsDgUafEzx45+3aLmYfKqpsYXwpFXt7gyRM/qanyPynvdEgsR9PJWuBjPUd1S84jftNX4RGtVt9wsMv3huGB7UyvF2xiq8YmXWd3S/2J/Mtfjc3pN6pb/H6IXmYjDbfKUTrrdSfqUbIey2dfP6tbggjgUiveaLBif90XAxKqM6pEcEYsYybgn4VNRbyzSpOdWZqFkgvHY5c56oft/ciWvDA3+Bb92i27q8jOsX7OX9zl7FSqt3KcH9r5WofpWMWfl2SoGgY0te+egzvAxZV+rxlRfsdb42Z6cRVh3mGml5aRnrJmozwgza3asyWVZR9qM7YhZiBXKcdKe5PshPuHVhpTFaKAnHBss1j0zJvVwFWS8oWxeNdaz2VqmJONOH+qwXDMQoSVa5/5k+fgzbO3H5USUbpih7VralloAdASCSC8+M0atPRes5iO+D/dDsu5TAbbc9ViYiXjmVZnCDxIXsgNghYTsi/SWoOcvmkt2gqHN6Lgekj0IylqbWMjVL3hbMz9GK+7aK47on++Yi5PcTERnwfwc/OqbKw1+AMkfhrimojw8QTPF3y/gqttcBNheZkAmBXp82iZmTGBI5u60uGPoO8aDsUKGq4Pr5J1ee3CaqKfUYgxXvJx1/ouhL30cO1GtYk//GBMHSxU97u8/4KZE/jy7yOgfQ74klvgPFk2YXBG9xNpAm6DeELk36887mzTy/SjdMHTlfgq30dC/5XALaED+F0hFjNL2l1dH3WB9PQzJB73ibpH4VCYwpWeQNQSRukjZwcxO6BV3OS763mEi+DCBQoaMrEETMLMe9T3uuDxNngzpBXixfW6KdGF2wVBSo+0undIj/woEHmyv4MXCdVhclMy/2JWe4CwTh3INESFv0KkHZpau9pZd6QlocAgrk4YWG9Gd1G6H9AJweWckhToLymQb95ILV0Bqku4eZvSCs+BqR/6UMsY1lUaYVYlkv3gvvNUGqB+mpgnIvdA/+/QXNH5fyC5YBU0Q/q8VocaJbtCUmFpp4a02QBc7tVqw2IVbUNLFvpJdsAoaH4Lbo+ZXGLJKzS99ZMem7ACaQjnQC+AQBe9V7hCpIRzyN1oCpVQP9AJQEEGkJ6coVEM+bWkLEOlSigukscUZHzlphDjGYaxL+Thd7T6kPwdM0QDS+JASEUhlO6xNoVwVJgLu8g5gTPICK4iQHaZ/6Wrv0DfLhLqt5Lri2VC3T6ekT3Nh7tY648IhQOKSD2dJ8gEGEtaW01QjLVwATxIX5kt/xgrCYJiRTos5aEQygCuKCTrc0KGrp+W0NjCjQkFs7isVaZ6AUgJjPNy5RIOuXJzUbDmECEwSG2aW47pTWjkeYmiqva2A3sfxCQBgq8zyTAs2Flrs7+nFR3c6fAPm1pS5uMidXdzWG5jsoysN/oHOLW53fM0UmVCc2M3QPUxF52dLstzX6H9IFkor4ULg3H1V+/DoQhjz19fTex79LTscd8x2VQ1lNVAxINoJWM+ZwsVwLlCDof41VMqDFxPHQsEi2f047XCXLMQJRBi5jT155aBToiVfo14Ux5H8ReNSr6XUlObkzaM62AcVrDUHgHcZGiaefVhHzp3IBTC7Dc1NBku9ptJfWO6G1AIquTdVSqcDKHIwWqd11tMQQO6DJVxKAJrlmi/+wqPksC/ydgXAXEWNB3sgIjJIGmA9YY3ndyNK5vVtzh4Cl1pP9YAF1q4QhURFXbb3gi4VRZR/zwPk5h1XznGAKj7NClHgOCa2okpAvB1qFSh5kHMwst5VAsIirVQOFpPXftAV0ikDDQvqQ3LefYibL4/GkOCA3MB5XcgdqA8JvoCTTQkVATxFvfoNK+JvomkCxHgvikMS0LJI5wXxYqBfU2R+OCCH22j5AkxDbZX4MCCf/GR5C6og91MyXGiybkYVHBIF9+6LzvLfgCraQ8IPyEWVj5r7VnnA5osZlydurvCJTl2q+LPs43nAFIsXkuCeWIuLKoljVYI4S6YvwrMJ7YK4pJG/y+hMlSBOk+k4b6OwIFT8yLnVkSrrtLd9Kz56lH+YcK9ydqlnbX9h0ZN3aOGQW6bPtVcQom1HlYXSyakrcnYZ7iKYlOMR18bCpiqp4oGjKzbyZ+Fh5fTOk6vyUHVTtLV2z6m+tHQXT49/xyHuVOFafxRDegYEm+39bLnnqBJW2HUv0p1YREQWsPVJCmicqKJYuYSQBK9YSUBTJ/ZVKXDEX2gNt733CO2q8NhFBj9h9oLzVFlVoMpI9vQv9F+mSRoHAo1FQS/GUy2uBj5HlcGqbLJeGDt8v6XDMpvBi0IyKNjZxHcicpsWVcn4R7Z381VXQEOQnre5X+CQ8dcLVXkqowqU9nVOm+NE7rYxpcC9cVxEUrZvRxWwl0UEPYBMMLsG1kBO8kLiPFWERkQB9BhB8VYO9qlirBLWBOcLlKOKWccRYBR5XPAH2OAJtqxxK7owSSpXxShPDOxkU/x72MJCadEXKmzLy1QxKahFdqKyqYT1ZiTv+AQX1M6IeCNR70STk6PATpQOA+OKDq/WAU0z7wtlqvQEquhbLjT8Eh7IAJnZdWVioK5x0tvrsZy1ra0HemLFPQzsBfTPPkQQ0uj00Qq4zrX6240BTAdVA45pxJ/FUNjESoYG2P9v6JfvZPR25c2oAOP7b6FRuTf1SR7xyQKDCgkwmOrVbe/4x7tej+lequ4IupwB7hscAtBiJxQFvePVWyHwVfYdE28I8ugQg/wuL03lGgc+R6zX0vKfOPQJCuyEIDcHp2p6gzN369BoBwUMzVnr1kbO5xVUTW+Dn6AHo9wQVhZrlrysOCGuUNwtjfgjTnOzWESfnVBIv06geBCX69hq3J3OM2AnBILOzN94VMuGvHPmqmUaUJmwE4q9UJNHtQVy5Mzeg2nVvBk7oWgIZtdGaTwC3ujpduD9RUYfo1O9RMA2vg7V3ofPv4Gd+Q6WITtBeCMyv95U8578eKgNpBDG7IRFfNzsTqfD+ahsv2NOjzL9TY3ZSXkkjBrNMgXaJdhJaTCHzLhTi1qAoEyPnZQGKjIo1bUG2Ynj+k+cWuW67+CzwtIJfS3gYi9XMM+GyWOnJYdgaPRqolnwX6rZOZxfuM1Yqteh6HTq1t0np8AZl6rbfBIoct+cu6o/yuB/y5Q2++KvB3VGbrqMBtUVm8eSjP7AzTEoTDqU8ySyYoehiyL2BoRVm3IP68q+CHhw0CEOCHCzLEVKJd/Z6m+sky/8TMBH8Q35CFaSpWK/rBUcQJkw4gdeIilwalv+Uibu4FVxqHq/kaQ/jbeJ1QCbqtW0mxV/tuITp1KRQgFwn7uil7aQfSVQ8BGOqoDnSyr7eE82EGvSP1szYJbOxPkjSdEWac5WLTDTWWHHw8ZSYsBsxV2wDdyvkntHMtpiJ+7CeLvazuUzfof1guIvBxoAMiC6B5qL8C6ryBY1BSoJDN6r/uRNsJJUBlqIuyB4N8w/58DrSQxY5ScMMHi3EArtzxLaElb8VQTYfbNyCnYtoy3Vxl2YO7DDiKS0pcrEEVbq2vrkQiqhLVUljrzucYu73LaaKQRHyW56a1nSgPnd4+aNX4f22ltIaUvbOHEUzFbnoeQgWsdiDjqSfc/cJHEUZ/NT7pEbq2mPmawUSCvuWmfL1+JDEZYbu01k3SXV4q4oXe4U+rh+wXr6+UlCW4oSR/v35CAtuOYxyH1YJZDSFmnc1Zj0nqVHjyVw0qFuP5eYmocja2s+dZjKfFAeXPWyEfb8/MLLbw7EW4y2kvxlEVqJuw1AwWfXL3jsXpzc2OT43JcSp3nm9nC4LF18v5M5uSL0h5vVrIZWaMFRwwoV6TDeHrsOP2DHQJou1sJgO1rU0GgWIU0XqyF87k1q7mFxRVxQwSzDwyF5r72lCGKR0xRbiM7uI3W3Aa4DWbqYR+t1mdXcgC4X0nQx1eE0f3L20SpzNJY5zqNZk4Mwgzhd3B9v6nQQZmDTxS+34CDMcE0XD6a34yDMMDmfdjfnIP7whz/8T/Efxbqrz+T2hN0AAAAASUVORK5CYII=;" vertex="1" parent="1">
          <mxGeometry x="-38.64" y="170" width="70" height="70" as="geometry" />
        </mxCell>
        <mxCell id="Qg6AfpxPYXCViFBLp9j0-85" value="" style="shape=flexArrow;endArrow=classic;html=1;rounded=0;" edge="1" parent="1">
          <mxGeometry width="50" height="50" relative="1" as="geometry">
            <mxPoint x="-4" y="258" as="sourcePoint" />
            <mxPoint x="-4" y="331" as="targetPoint" />
          </mxGeometry>
        </mxCell>
        <mxCell id="Qg6AfpxPYXCViFBLp9j0-87" value="" style="shape=flexArrow;endArrow=classic;html=1;rounded=0;" edge="1" parent="1">
          <mxGeometry width="50" height="50" relative="1" as="geometry">
            <mxPoint x="-67" y="253" as="sourcePoint" />
            <mxPoint x="-135" y="309" as="targetPoint" />
          </mxGeometry>
        </mxCell>
        <mxCell id="Qg6AfpxPYXCViFBLp9j0-88" value="" style="shape=flexArrow;endArrow=classic;html=1;rounded=0;" edge="1" parent="1">
          <mxGeometry width="50" height="50" relative="1" as="geometry">
            <mxPoint x="66" y="252" as="sourcePoint" />
            <mxPoint x="137" y="305" as="targetPoint" />
          </mxGeometry>
        </mxCell>
        <mxCell id="Qg6AfpxPYXCViFBLp9j0-89" value="" style="shape=image;verticalLabelPosition=bottom;labelBackgroundColor=default;verticalAlign=top;aspect=fixed;imageAspect=0;image=data:image/png,iVBORw0KGgoAAAANSUhEUgAAAMgAAADICAMAAACahl6sAAAAdVBMVEX///8AAABjY2Obm5tnZ2eXl5fPz88zMzPLy8svLy/q6urf39+CgoKvr6/7+/v19fVtbW0RERGjo6MTExO9vb0LCws+Pj48PDxaWlp7e3tRUVHp6emLi4uqqqrCwsIbGxtMTEwiIiLW1ta2trZ0dHQoKCiQkJDHZ8QXAAAE9ElEQVR4nO2ca3uiMBBGVfCC2mq91FvVdt36/3/iMiQsARJumYD6vOcLBe2QozAJkLHXAwAAAAAAAAAAAAAAAAAAAAAAAAAAAAAAuFnc5v6gA/z5bcGoMV1u+52xXU65PDbr7jSI9YbH461bDeKNw+NPdFit/bvXAXc/Ohq2fxhEPinSgfOUq8XiL+3/0z7QheJ82cdpzhe1YGIdZsnzediwC5uwtI4SmM61WZjm5xbL6lC2CewsQuhU1ybySfjC2GJZnSmd7nYWIXSA/o949pL0wSOyuHmXWm3gEFnRt7N/5xSZXMO13aldkYnonOLTbhqm+TeLZRRDjBl27YrshciWsUv5kj13ydHFLDKWe+XoZSW+DLmq2gYLkiDfcq9sg9Feby5DlowKmUXk4HEvX+DoR2bi8qCsk+DOWodo1BOfIixZ60wmP2UHK7dIb3JYnv+/wNOPzObLYWn2YBdJ0V7P7liEox+xbUPrQR6hDRBh5PlEphMt1AZaWsVuVWTYL8QqNkSa8FIi67GWhxF5jyl6E4n4jtqRBEh/wQO55hX870h303hU8A8PKjL60B3ozyei93g+EYNHLZHzUNOOhphEZqPR6FggIjwytxSDWiL3H2XFmQgxMItoPWqK9PvbjbLiMP0WiKx1HrVFlNFVVyJaj9oiym0iZyLzIAg+ikXyW+uKKNGdiZRkLQ6RydHNyZ6mBZEwNd5K21GZTkUqtKMypgAXz/N2ryBClGSt/NbHEKnVIUKkiMYS6Ralw60Gg8HvK4g4y1rtiCTbIVIkUtoGC0widD1CGB7EPY9Io30/jkjlkPTGIMf2OUX0QMSSFxVJtq8yM3QzkxdGRhrMAHEqMsh80IaxHgsQ0QdxLHLOZ+sYik9Lq/hpkSQciQzk7Nw9h0jJOMv6W0mLJGvqtUjB9VB1OhaZeaOXEKF5Shs+kaM5azOLUEixJkS8Pk1yZBMpCMIskmwXIvRBnV9BpLehGVyvIFKlDdVoV4RGVWKNRPZDAVs/0p5IOmupuBBRx5dPLHL7VlefV+Q3XTTCKOJLxNrKT1MymbqcrEh4Qjo6tByTF0lNW3lmkc/X+EYCZ+eIY3JZa+MqaxWRvRWhIh+3ZzfPykSc9SNFZJOxyjgJpJK9LdRezx4VixnuSjUWWbzFxWItiohiMe19qaYiUbHY+NSuyEU0QFujqd6KUDmkReLNVylyEnO6du2KyGKxvu4rMT0WnaRF4s3x4wW1WKw9kSB1cKdpKKI+9iKRz6ERRpFvuVfdM6qGImqxWHt3UWSx2FH3roYisljs571VEVEsFmjrURuKiER4jf5sUYSKxVb6mdRNRahY7C6O1YtvguaArpMLiIYYy8B5RKpw63P8NoCxMD9FVuQU5hmq9GMRoV99sH9qQT+VUFbdnBfR1Oo1FolKrK0vQKN7iZr5ohkcirzTKcJRsh11H8uSQO5ETtH+D/XarGUWjYc+BndaoT42uySykwJnYY6ZS5FrvmsmkYO5F0/4OkY9zS9LDf1mm2Rx3TLGlLU0HUHQr8WaqYT+cu1WZJy9mGyM+NmbjkSu98JqpppQxPhAzy6pz6VJgXvNMU6jmrXon+mtcYUkvf1o7MkV/t7tf2snJ2KCXme4Zm8HiDyaSNFxTK9nb2mryGFBtkKS8VdJAAAAAAAAAAAAAAAAAAAAAAAAAAAAAACABvwDcgVAK7z7gOsAAAAASUVORK5CYII=;" vertex="1" parent="1">
          <mxGeometry x="242.5" y="590" width="91" height="91" as="geometry" />
        </mxCell>
        <mxCell id="Qg6AfpxPYXCViFBLp9j0-90" value="" style="shape=image;verticalLabelPosition=bottom;labelBackgroundColor=default;verticalAlign=top;aspect=fixed;imageAspect=0;image=https://encrypted-tbn0.gstatic.com/images?q=tbn:ANd9GcQvTasi86MHWicFxzDo5Ko1GgsOMeNs_jUMiw&amp;usqp=CAU;" vertex="1" parent="1">
          <mxGeometry x="241" y="409" width="94" height="94" as="geometry" />
        </mxCell>
        <mxCell id="Qg6AfpxPYXCViFBLp9j0-91" value="" style="html=1;shadow=0;dashed=0;shape=mxgraph.bootstrap.rrect;rSize=5;strokeColor=#DFDFDF;html=1;whiteSpace=wrap;fillColor=#FFFFFF;fontColor=#000000;" vertex="1" parent="1">
          <mxGeometry x="351.5" y="429" width="200" height="150" as="geometry" />
        </mxCell>
        <mxCell id="Qg6AfpxPYXCViFBLp9j0-92" value="syrakousai" style="html=1;shadow=0;dashed=0;shape=mxgraph.bootstrap.topButton;rSize=5;strokeColor=none;fillColor=#0085FC;fontColor=#ffffff;perimeter=none;whiteSpace=wrap;resizeWidth=1;align=left;spacing=10;" vertex="1" parent="Qg6AfpxPYXCViFBLp9j0-91">
          <mxGeometry width="200" height="30" relative="1" as="geometry" />
        </mxCell>
        <mxCell id="Qg6AfpxPYXCViFBLp9j0-93" value="ip: 192.168.3.121" style="strokeColor=inherit;fillColor=inherit;gradientColor=inherit;fontColor=inherit;html=1;shadow=0;dashed=0;perimeter=none;whiteSpace=wrap;resizeWidth=1;align=left;spacing=10;" vertex="1" parent="Qg6AfpxPYXCViFBLp9j0-91">
          <mxGeometry width="200" height="30" relative="1" as="geometry">
            <mxPoint y="30" as="offset" />
          </mxGeometry>
        </mxCell>
        <mxCell id="Qg6AfpxPYXCViFBLp9j0-94" value="type: Raspberry PI 4B" style="strokeColor=inherit;fillColor=inherit;gradientColor=inherit;fontColor=inherit;html=1;shadow=0;dashed=0;perimeter=none;whiteSpace=wrap;resizeWidth=1;align=left;spacing=10;" vertex="1" parent="Qg6AfpxPYXCViFBLp9j0-91">
          <mxGeometry width="200" height="30" relative="1" as="geometry">
            <mxPoint y="60" as="offset" />
          </mxGeometry>
        </mxCell>
        <mxCell id="Qg6AfpxPYXCViFBLp9j0-95" value="memory: 8gb cpu: 4 cores" style="strokeColor=inherit;fillColor=inherit;gradientColor=inherit;fontColor=inherit;html=1;shadow=0;dashed=0;perimeter=none;whiteSpace=wrap;resizeWidth=1;align=left;spacing=10;" vertex="1" parent="Qg6AfpxPYXCViFBLp9j0-91">
          <mxGeometry width="200" height="30" relative="1" as="geometry">
            <mxPoint y="90" as="offset" />
          </mxGeometry>
        </mxCell>
        <mxCell id="Qg6AfpxPYXCViFBLp9j0-96" value="storage: 128GB" style="strokeColor=inherit;fillColor=inherit;gradientColor=inherit;fontColor=inherit;html=1;shadow=0;dashed=0;shape=mxgraph.bootstrap.bottomButton;rSize=5;perimeter=none;whiteSpace=wrap;resizeWidth=1;resizeHeight=0;align=left;spacing=10;" vertex="1" parent="Qg6AfpxPYXCViFBLp9j0-91">
          <mxGeometry y="1" width="200" height="30" relative="1" as="geometry">
            <mxPoint y="-30" as="offset" />
          </mxGeometry>
        </mxCell>
        <mxCell id="Qg6AfpxPYXCViFBLp9j0-97" value="" style="html=1;shadow=0;dashed=0;shape=mxgraph.bootstrap.rrect;rSize=5;strokeColor=#DFDFDF;html=1;whiteSpace=wrap;fillColor=#FFFFFF;fontColor=#000000;" vertex="1" parent="1">
          <mxGeometry x="345.5" y="616" width="200" height="150" as="geometry" />
        </mxCell>
        <mxCell id="Qg6AfpxPYXCViFBLp9j0-98" value="akragas" style="html=1;shadow=0;dashed=0;shape=mxgraph.bootstrap.topButton;rSize=5;strokeColor=none;fillColor=#0085FC;fontColor=#ffffff;perimeter=none;whiteSpace=wrap;resizeWidth=1;align=left;spacing=10;" vertex="1" parent="Qg6AfpxPYXCViFBLp9j0-97">
          <mxGeometry width="200" height="30" relative="1" as="geometry" />
        </mxCell>
        <mxCell id="Qg6AfpxPYXCViFBLp9j0-99" value="ip: 192.168.3.122" style="strokeColor=inherit;fillColor=inherit;gradientColor=inherit;fontColor=inherit;html=1;shadow=0;dashed=0;perimeter=none;whiteSpace=wrap;resizeWidth=1;align=left;spacing=10;" vertex="1" parent="Qg6AfpxPYXCViFBLp9j0-97">
          <mxGeometry width="200" height="30" relative="1" as="geometry">
            <mxPoint y="30" as="offset" />
          </mxGeometry>
        </mxCell>
        <mxCell id="Qg6AfpxPYXCViFBLp9j0-100" value="type: Raspberry PI 3B" style="strokeColor=inherit;fillColor=inherit;gradientColor=inherit;fontColor=inherit;html=1;shadow=0;dashed=0;perimeter=none;whiteSpace=wrap;resizeWidth=1;align=left;spacing=10;" vertex="1" parent="Qg6AfpxPYXCViFBLp9j0-97">
          <mxGeometry width="200" height="30" relative="1" as="geometry">
            <mxPoint y="60" as="offset" />
          </mxGeometry>
        </mxCell>
        <mxCell id="Qg6AfpxPYXCViFBLp9j0-101" value="memory: 1gb cpu: 4 cores" style="strokeColor=inherit;fillColor=inherit;gradientColor=inherit;fontColor=inherit;html=1;shadow=0;dashed=0;perimeter=none;whiteSpace=wrap;resizeWidth=1;align=left;spacing=10;" vertex="1" parent="Qg6AfpxPYXCViFBLp9j0-97">
          <mxGeometry width="200" height="30" relative="1" as="geometry">
            <mxPoint y="90" as="offset" />
          </mxGeometry>
        </mxCell>
        <mxCell id="Qg6AfpxPYXCViFBLp9j0-102" value="storage: 32GB" style="strokeColor=inherit;fillColor=inherit;gradientColor=inherit;fontColor=inherit;html=1;shadow=0;dashed=0;shape=mxgraph.bootstrap.bottomButton;rSize=5;perimeter=none;whiteSpace=wrap;resizeWidth=1;resizeHeight=0;align=left;spacing=10;" vertex="1" parent="Qg6AfpxPYXCViFBLp9j0-97">
          <mxGeometry y="1" width="200" height="30" relative="1" as="geometry">
            <mxPoint y="-30" as="offset" />
          </mxGeometry>
        </mxCell>
      </root>
    </mxGraphModel>
  </diagram>
</mxfile>
